<?xml version="1.0" encoding="utf-8"?>
<!-- Generator: Adobe Illustrator 27.2.0, SVG Export Plug-In . SVG Version: 6.00 Build 0)  -->
<svg version="1.1" id="Слой_1" xmlns="http://www.w3.org/2000/svg" xmlns:xlink="http://www.w3.org/1999/xlink" x="0px" y="0px"
	 viewBox="0 0 62 67" style="enable-background:new 0 0 62 67;" xml:space="preserve">
<style type="text/css">
	.st0{fill:#D24F16;}
</style>
<g>
	<path class="st0" d="M59.04,24.33H2.96c-0.87,0-1.69-0.34-2.25-0.94c-0.5-0.54-0.75-1.22-0.7-1.93C0.82,9.43,14.52,0,31.2,0
		c16.48,0,30.01,9.43,30.8,21.47c0.05,0.71-0.2,1.39-0.71,1.93C60.73,23.99,59.91,24.33,59.04,24.33z M3.62,20.82h54.77
		c-0.59-4.47-3.44-8.64-8.09-11.83C45.15,5.46,38.37,3.52,31.2,3.52C17.05,3.52,4.94,11.2,3.62,20.82z"/>
	<path class="st0" d="M56.76,49.17H5.24C2.35,49.17,0,46.83,0,43.95c0-2.88,2.35-5.22,5.24-5.22h51.53c2.89,0,5.24,2.34,5.24,5.22
		C62,46.83,59.65,49.17,56.76,49.17z M5.24,42.25c-0.94,0-1.71,0.76-1.71,1.7s0.77,1.7,1.71,1.7h51.53c0.94,0,1.71-0.76,1.71-1.7
		s-0.77-1.7-1.71-1.7H5.24z"/>
	<path class="st0" d="M19.5,32.26c0.09,0.15,2.34,3.78,6.03,4.01c2.39,0.15,4.68-1.13,6.81-3.8c0.99-1.25,2.5-2.71,4.05-2.61
		c1.6,0.11,2.96,1.83,3.35,2.48l-0.05-0.08l0.06,0.09c0.09,0.15,2.34,3.78,6.03,4.01c2.39,0.15,4.68-1.13,6.81-3.8
		c0.99-1.24,2.5-2.71,4.05-2.61c1.03,0.07,1.96,0.81,2.6,1.5c0.49,0.54,1.31,0.67,1.96,0.31l0,0c0.87-0.48,1.08-1.61,0.42-2.34
		c-0.99-1.09-2.61-2.39-4.74-2.54c-2.37-0.16-4.66,1.11-6.8,3.79c-1.44,1.8-2.81,2.68-4.09,2.61c-1.67-0.09-3.1-1.84-3.51-2.5
		c-0.21-0.35-2.34-3.76-5.85-4.01c-2.37-0.17-4.66,1.11-6.8,3.79c-1.44,1.8-2.81,2.68-4.09,2.61c-1.67-0.09-3.1-1.84-3.51-2.5
		c-0.21-0.35-2.34-3.76-5.85-4.01c-2.38-0.17-4.66,1.11-6.8,3.79c-1.44,1.8-2.81,2.68-4.09,2.61c-1.09-0.06-2.08-0.83-2.75-1.54
		c-0.5-0.53-1.32-0.64-1.96-0.28l0,0c-0.86,0.49-1.05,1.63-0.38,2.35c1.03,1.09,2.7,2.41,4.88,2.54c2.39,0.15,4.68-1.13,6.81-3.79
		c0.99-1.24,2.5-2.71,4.05-2.61c1.6,0.11,2.96,1.83,3.35,2.48"/>
	<path class="st0" d="M49.64,67H12.36C5.54,67,0,61.47,0,54.68v-0.23c0-1.62,1.32-2.93,2.94-2.93h56.12c1.62,0,2.94,1.32,2.94,2.93
		v0.23C62,61.47,56.46,67,49.64,67z M3.54,55.04c0.19,4.69,4.07,8.44,8.82,8.44h37.29c4.75,0,8.63-3.75,8.82-8.44H3.54z"/>
</g>
</svg>
