<?xml version="1.0" encoding="utf-8"?>
<!-- Generator: Adobe Illustrator 27.2.0, SVG Export Plug-In . SVG Version: 6.00 Build 0)  -->
<svg version="1.1" id="Слой_1" xmlns="http://www.w3.org/2000/svg" xmlns:xlink="http://www.w3.org/1999/xlink" x="0px" y="0px"
	 viewBox="0 0 62 67" style="enable-background:new 0 0 62 67;" xml:space="preserve">
<style type="text/css">
	.st0{fill:#D24F16;}
</style>
<g>
	<path class="st0" d="M38.3,19.59c-6.49,0-12.38,2.62-16.66,6.86c-0.39-0.86-0.72-1.72-0.97-2.57c-0.3-1.01-0.48-2.01-0.49-2.98
		c0-0.19,0-0.37,0-0.55c0.02-1.74,0.3-2.73,0.69-3.53c0.18-0.39,0.4-0.73,0.62-1.08c0.82-1.31,1.76-2.8,1.7-6.23
		c-0.11-6.38-4.15-9.08-7.9-9.48C15.17,0,15.07,0,14.96,0h-1.2c-0.15,0-0.28,0.01-0.41,0.03C9.63,0.55,5.63,3.3,5.52,9.5
		c-0.06,3.43,0.87,4.92,1.7,6.23c0.22,0.36,0.43,0.69,0.62,1.08c0.38,0.8,0.66,1.79,0.68,3.53c0,0.17,0,0.36,0,0.55
		c-0.02,0.98-0.2,1.98-0.49,2.98c-0.34,1.16-0.84,2.35-1.41,3.53c-0.66,1.34-1.41,2.69-2.16,4.02c-1.71,3.05-3.33,5.93-3.88,8.86
		c-0.67,3.63-1.15,8.88,0.86,16.11c0.31,1.13,0.69,2.3,1.13,3.53c0.62,1.7,1.37,3.5,2.28,5.4C5.34,66.34,6.38,67,7.51,67h13.69
		c1.13,0,2.17-0.66,2.66-1.67c0.4-0.84,0.77-1.66,1.11-2.45c3.8,2.6,8.4,4.12,13.34,4.12C51.37,67,62,56.37,62,43.29
		C62,30.22,51.37,19.59,38.3,19.59z M9.05,9.56c0.08-4.81,3.3-5.82,4.74-6.03h1.14c1.74,0.19,4.64,1.24,4.72,6.03
		c0.04,2.38-0.46,3.19-1.16,4.3c-0.47,0.76-1.02,1.63-1.39,2.96H11.6c-0.38-1.33-0.92-2.2-1.4-2.96C9.51,12.75,9.01,11.94,9.05,9.56
		z M17.01,23.87h-5.33c0.22-0.96,0.35-1.94,0.37-2.93c0-0.21,0-0.41,0-0.6h4.59c0,0.2,0,0.4,0,0.6
		C16.66,21.93,16.79,22.91,17.01,23.87z M22.09,60.58c-0.38,0.93-0.8,1.89-1.27,2.89H7.88c-0.58-1.23-1.09-2.41-1.53-3.55h16.01
		C22.27,60.14,22.18,60.36,22.09,60.58z M23.59,56.39H5.11C3,49.5,3.37,44.6,4.05,40.92c0.44-2.35,1.91-4.98,3.48-7.76
		c1.06-1.88,2.14-3.8,2.97-5.75h7.7c0.28,0.66,0.6,1.32,0.92,1.98c0.6,1.18,1.25,2.35,1.9,3.51c0.05,0.09,0.1,0.18,0.15,0.27
		c1.57,2.78,3.05,5.42,3.48,7.76C25.33,44.6,25.7,49.5,23.59,56.39z M38.3,63.47c-4.5,0-8.66-1.48-12.02-3.98
		c0.38-1.07,0.71-2.1,0.98-3.09c2.01-7.23,1.53-12.48,0.86-16.11c-0.54-2.93-2.16-5.8-3.87-8.86c-0.31-0.55-0.62-1.09-0.91-1.64
		c3.69-4.09,9.03-6.66,14.96-6.66c11.12,0,20.17,9.05,20.17,20.17C58.47,54.42,49.42,63.47,38.3,63.47z"/>
	<path class="st0" d="M49.6,32.3c0-2.72-2.21-4.93-4.93-4.93c-2.72,0-4.93,2.21-4.93,4.93c0,0.94,0.27,1.82,0.73,2.57
		c-1.33,0.89-2.2,2.4-2.2,4.11c0,2.72,2.22,4.93,4.93,4.93c1.75,0,3.28-0.91,4.16-2.28c0.67,0.35,1.44,0.54,2.24,0.54
		c2.72,0,4.93-2.21,4.93-4.93C54.54,34.52,52.32,32.3,49.6,32.3z M44.67,30.9c0.78,0,1.4,0.63,1.4,1.4c0,0.77-0.63,1.4-1.4,1.4
		c-0.77,0-1.4-0.63-1.4-1.4C43.27,31.53,43.89,30.9,44.67,30.9z M43.2,40.38c-0.77,0-1.4-0.63-1.4-1.4c0-0.78,0.63-1.4,1.4-1.4
		c0.77,0,1.4,0.63,1.4,1.4C44.6,39.75,43.97,40.38,43.2,40.38z M49.6,38.64c-0.77,0-1.4-0.63-1.4-1.4c0-0.77,0.63-1.4,1.4-1.4
		c0.77,0,1.4,0.63,1.4,1.4C51.01,38.01,50.37,38.64,49.6,38.64z"/>
</g>
</svg>
