<?xml version="1.0" encoding="utf-8"?>
<!-- Generator: Adobe Illustrator 27.2.0, SVG Export Plug-In . SVG Version: 6.00 Build 0)  -->
<svg version="1.1" id="Слой_1" xmlns="http://www.w3.org/2000/svg" xmlns:xlink="http://www.w3.org/1999/xlink" x="0px" y="0px"
	 viewBox="0 0 62 67" style="enable-background:new 0 0 62 67;" xml:space="preserve">
<style type="text/css">
	.st0{fill:#D24F16;}
</style>
<g>
	<path class="st0" d="M52.63,0.23c-1.69-0.58-3.48-0.05-4.58,1.35c-4.93,6.3-10.72,17.98-10.29,37.82l0,0.16
		c0.02,0.87,0.73,1.57,1.6,1.57h3.84c0.89,0,1.61,0.72,1.61,1.61v22.66c0,0.89,0.72,1.61,1.61,1.61h7.39c0.89,0,1.61-0.72,1.61-1.61
		V4.14C55.41,2.35,54.32,0.82,52.63,0.23z M48.34,63.47V39.2c0-0.89-0.72-1.61-1.61-1.61h-5.47c-0.05-18.7,5.92-29.19,9.56-33.84
		c0.21-0.27,0.47-0.25,0.65-0.19c0.15,0.05,0.41,0.2,0.41,0.57v59.33H48.34z"/>
	<path class="st0" d="M16.97,1.77v16.51c0,0.97-0.79,1.76-1.76,1.76h0c-0.97,0-1.76-0.79-1.76-1.76V1.77c0-0.97,0.79-1.76,1.76-1.76
		h0C16.18,0,16.97,0.79,16.97,1.77z"/>
	<path class="st0" d="M23.87,1.77v16.51c0,0.97-0.79,1.76-1.76,1.76h0c-0.97,0-1.76-0.79-1.76-1.76V1.77c0-0.97,0.79-1.76,1.76-1.76
		h0C23.08,0,23.87,0.79,23.87,1.77z"/>
	<path class="st0" d="M28.75,0c-0.89,0-1.61,0.72-1.61,1.61v13.45c0,1.86-0.6,3.58-1.62,4.99c-0.47,0.65-1.02,1.22-1.65,1.71
		c-1.02,0.8-2.22,1.37-3.53,1.64c-0.55,0.11-1.13,0.17-1.71,0.17c-0.57,0-1.12-0.05-1.66-0.16c-1.31-0.26-2.51-0.82-3.53-1.61
		c-0.65-0.5-1.23-1.09-1.71-1.76c-1.02-1.4-1.62-3.12-1.62-4.99V1.61C10.12,0.72,9.4,0,8.51,0H8.19C7.3,0,6.59,0.72,6.59,1.61v13.45
		c0,4.46,2.43,8.36,6.04,10.44c0.5,0.29,0.81,0.82,0.81,1.39l0,38.5c0,0.89,0.72,1.61,1.61,1.61h7.22c0.89,0,1.61-0.72,1.61-1.61
		l0-38.54c0-0.57,0.31-1.1,0.81-1.39c3.58-2.09,6-5.98,6-10.41V1.61c0-0.89-0.72-1.61-1.61-1.61H28.75z M20.34,63.47h-3.37V27.1
		l1.66,0c0.58,0,0.73,0.01,1.71,0.01V63.47z"/>
</g>
</svg>
