<?xml version="1.0" encoding="utf-8"?>
<!-- Generator: Adobe Illustrator 27.2.0, SVG Export Plug-In . SVG Version: 6.00 Build 0)  -->
<svg version="1.1" id="Слой_1" xmlns="http://www.w3.org/2000/svg" xmlns:xlink="http://www.w3.org/1999/xlink" x="0px" y="0px"
	 viewBox="0 0 62 67" style="enable-background:new 0 0 62 67;" xml:space="preserve">
<style type="text/css">
	.st0{fill:#D24F16;}
</style>
<path class="st0" d="M57.32,56.8c0-0.05,0-0.09-0.01-0.14c-0.08-1.24-0.3-2.43-0.66-3.57c-1.04-3.31-3.22-6.13-6.06-8
	c-1.3-0.86-2.07-2.35-2.07-3.92v-7.91c0-2.74-1.81-5.08-4.3-5.86v-7.34h3.11c5.43,0,9.83-4.4,9.83-9.83c0-0.5-0.2-0.94-0.52-1.26
	c-0.32-0.33-0.77-0.52-1.26-0.52h-7.03c0.46-0.89,0.72-1.9,0.72-2.97V2.38C49.07,1.07,48,0,46.69,0h-8.63
	c-1.31,0-2.38,1.07-2.38,2.38v3.09c0,1.07,0.26,2.08,0.72,2.97h-7.03c-0.98,0-1.78,0.8-1.78,1.78c0,2.72,1.1,5.18,2.88,6.96
	c1.78,1.78,4.24,2.88,6.95,2.88h3.24v7.3c-1.16,0.34-2.18,1.01-2.96,1.91c-1.68-1.82-4.12-3.84-6.83-4.08
	c-1.67-0.15-3.22,0.42-4.46,1.64c-2.51,2.45-3.29,8.18-4.2,14.82c-0.45,3.31-0.92,6.74-1.61,9.46c-0.18,0.7-0.39,1.36-0.64,1.99
	c-0.56,1.44-1.29,2.64-2.15,3.57c-0.56,0.6-1.17,1.09-1.84,1.44c-1.36,0.72-2.84,0.85-4.19,0.37c-1.02-0.36-1.82-0.97-2.4-1.81
	c-0.01,0-0.01-0.01-0.01-0.01c-1.39-2.01-1.53-5.36-0.43-10.02c0.46-1.92,3.07-8.92,5.89-16.27l0.23,0.1
	c0.91,0.38,1.95-0.05,2.34-0.96c0.1-0.23,0.14-0.46,0.14-0.69c0-0.7-0.41-1.36-1.09-1.65l-0.34-0.14c0.82-2.14,1.64-4.25,2.4-6.21
	c1.34-3.48,2.55-6.59,3.42-8.88c0.35-0.93-0.12-1.96-1.05-2.3c-0.21-0.08-0.42-0.11-0.62-0.11c-0.72,0-1.4,0.44-1.67,1.15
	c-0.87,2.28-2.07,5.38-3.41,8.86c-0.76,1.97-1.56,4.04-2.36,6.11l-0.33-0.14c-0.91-0.38-1.95,0.04-2.34,0.95
	c-0.1,0.23-0.14,0.46-0.14,0.69c0,0.69,0.41,1.36,1.09,1.65l0.44,0.18c-2.47,6.46-4.75,12.52-5.69,15.52
	c-0.17,0.54-0.3,0.99-0.38,1.31c-0.13,0.56-0.25,1.11-0.34,1.63c-0.66,3.53-0.55,6.22,0,8.28c0.19,0.72,0.44,1.36,0.72,1.93
	c1.23,2.47,3.19,3.64,4.73,4.19c0.93,0.33,1.89,0.5,2.86,0.5c1.43,0,2.87-0.36,4.21-1.07c1.42-0.75,3.14-2.12,4.56-4.59
	c0.57-1,1.1-2.18,1.53-3.57c0.11-0.35,0.21-0.72,0.31-1.11c0.75-2.91,1.23-6.44,1.69-9.86c0.71-5.23,1.53-11.15,3.16-12.75
	c0.51-0.5,1.02-0.69,1.66-0.64c1.55,0.14,3.79,1.84,5.68,4.31c0,0.07,0,0.14,0,0.21v7.88c0,1.61-0.83,3.09-2.16,3.99
	c-0.75,0.5-1.46,1.08-2.12,1.72c-1.82,1.76-3.12,3.9-3.85,6.24c-0.36,1.15-0.58,2.34-0.65,3.57c-0.02,0.31-0.03,0.61-0.03,0.92
	c0,3.31,1.06,6.46,3.08,9.09L30.75,67H54l0.26-0.34C56.42,63.85,57.5,60.34,57.32,56.8z M39.25,3.21h6.25v2.26
	c0,1.63-1.34,2.97-2.97,2.97h-0.31c-1.64,0-2.97-1.33-2.97-2.97V3.21z M37.42,16.49c-2.84,0-5.24-1.89-6.01-4.48h21.92
	c-0.77,2.59-3.17,4.48-6.01,4.48H37.42z M34.43,49.4c0.56-0.54,1.16-1.02,1.8-1.43l0.03-0.02c2.2-1.37,3.54-3.78,3.54-6.37v-8.23
	c0-1.31,0.94-2.48,2.24-2.65c1.57-0.21,2.93,1.02,2.93,2.56v8.38c0,2.52,1.28,4.86,3.39,6.24l0.18,0.11c1.9,1.23,3.42,3,4.33,5.09
	H31.89C32.47,51.72,33.33,50.47,34.43,49.4z M51.92,63.79h-19.1c-1.21-1.85-1.85-3.98-1.85-6.22c0-0.31,0.01-0.61,0.04-0.92h22.72
	c0.01,0.11,0.02,0.21,0.02,0.32C53.88,59.4,53.23,61.78,51.92,63.79z"/>
</svg>
