<?xml version="1.0" encoding="utf-8"?>
<svg version="1.1" id="Слой_1" xmlns="http://www.w3.org/2000/svg" xmlns:xlink="http://www.w3.org/1999/xlink" x="0px" y="0px"
	 viewBox="0 0 62 67" style="enable-background:new 0 0 62 67;" xml:space="preserve">
<style type="text/css">
	.st0{fill:#D24F16;}
</style>
<g>
	<!-- Retro microphone: egg-shaped head with horizontal ribs -->
	<!-- Outer silhouette of the head -->
	<path class="st0" d="M31,1C22.16,1,15,8.16,15,17c0,6.5,3.88,12.08,9.45,14.58
		C25.42,32.48,26.5,33.9,26.5,35.5V37h-1c-1.1,0-2,0.9-2,2v1c0,1.1,0.9,2,2,2h1.25
		l0.5,2H26c-0.55,0-1,0.45-1,1s0.45,1,1,1h10c0.55,0,1-0.45,1-1s-0.45-1-1-1h-1.25
		l0.5-2H36.5c1.1,0,2-0.9,2-2v-1c0-1.1-0.9-2-2-2h-1v-1.5c0-1.6,1.08-3.02,2.05-3.92
		C43.12,29.08,47,23.5,47,17C47,8.16,39.84,1,31,1z"/>
	<!-- Horizontal ribs (cutout lines - white gaps) -->
	<rect x="16.5" y="7.5" width="29" height="2" rx="1" fill="white"/>
	<rect x="15.5" y="12" width="31" height="2" rx="1" fill="white"/>
	<rect x="15.5" y="16.5" width="31" height="2" rx="1" fill="white"/>
	<rect x="15.5" y="21" width="31" height="2" rx="1" fill="white"/>
	<rect x="16.5" y="25.5" width="29" height="2" rx="1" fill="white"/>
	<rect x="19" y="29.5" width="24" height="2" rx="1" fill="white"/>
	<!-- Stand pole -->
	<rect class="st0" x="29" y="46" width="4" height="15" rx="2"/>
	<!-- Stand base -->
	<ellipse class="st0" cx="31" cy="63" rx="10" ry="3"/>
</g>
</svg>