<?xml version="1.0" encoding="utf-8"?>
<!-- Generator: Adobe Illustrator 27.2.0, SVG Export Plug-In . SVG Version: 6.00 Build 0)  -->
<svg version="1.1" id="Слой_1" xmlns="http://www.w3.org/2000/svg" xmlns:xlink="http://www.w3.org/1999/xlink" x="0px" y="0px"
	 viewBox="0 0 62 67" style="enable-background:new 0 0 62 67;" xml:space="preserve">
<style type="text/css">
	.st0{fill:#D24F16;}
</style>
<g>
	<g>
		<path class="st0" d="M17.72,1.77v16.51c0,0.97-0.79,1.77-1.77,1.77h0c-0.97,0-1.77-0.79-1.77-1.77V1.77
			c0-0.97,0.79-1.77,1.77-1.77h0C16.93,0,17.72,0.79,17.72,1.77z"/>
		<path class="st0" d="M24.63,1.77v16.51c0,0.97-0.79,1.77-1.77,1.77h0c-0.97,0-1.77-0.79-1.77-1.77V1.77C21.1,0.79,21.89,0,22.86,0
			h0C23.84,0,24.63,0.79,24.63,1.77z"/>
		<path class="st0" d="M29.5,0c-0.89,0-1.61,0.72-1.61,1.61v13.45c0,1.86-0.6,3.58-1.62,4.99c-0.47,0.65-1.02,1.22-1.65,1.71
			c-1.02,0.8-2.22,1.37-3.53,1.64c-0.55,0.11-1.13,0.17-1.71,0.17c-0.57,0-1.12-0.05-1.66-0.16c-1.31-0.26-2.51-0.82-3.53-1.61
			c-0.65-0.5-1.23-1.09-1.71-1.76c-1.02-1.4-1.62-3.12-1.62-4.99V1.61C10.87,0.72,10.15,0,9.26,0H8.94C8.06,0,7.34,0.72,7.34,1.61
			v13.45c0,4.46,2.43,8.36,6.04,10.44c0.5,0.29,0.81,0.82,0.81,1.39l0,38.51c0,0.89,0.72,1.61,1.61,1.61h7.22
			c0.89,0,1.61-0.72,1.61-1.61l0-38.54c0-0.57,0.31-1.1,0.81-1.39c3.58-2.09,6-5.98,6-10.41V1.61c0-0.89-0.72-1.61-1.61-1.61H29.5z
			 M21.1,63.47h-3.37V27.1l1.66,0c0.58,0,0.73,0.01,1.71,0.01V63.47z"/>
	</g>
	<path class="st0" d="M54.65,64.91c0.08,1.06-0.64,1.99-1.61,2.08c-0.97,0.09-1.83-0.7-1.91-1.76l-3.8-65.21l1.18-0.01l0,0
		l1.5,15.85l1.81,19.16L54.65,64.91z"/>
	<path class="st0" d="M42.12,65.09c-0.01,1.07-0.8,1.92-1.78,1.91c-0.97-0.01-1.76-0.88-1.75-1.95L40.33,0h1.18l0.15,15.78
		l0.18,19.26L42.12,65.09z"/>
</g>
</svg>
