<?xml version="1.0" encoding="utf-8"?>
<!-- Generator: Adobe Illustrator 27.2.0, SVG Export Plug-In . SVG Version: 6.00 Build 0)  -->
<svg version="1.1" id="Слой_1" xmlns="http://www.w3.org/2000/svg" xmlns:xlink="http://www.w3.org/1999/xlink" x="0px" y="0px"
	 viewBox="0 0 100 100" style="enable-background:new 0 0 100 100;" xml:space="preserve">

<g>
	<circle fill="#D24F16" cx="50" cy="50" r="50"/>
	<g>
		<g>
			<path fill="#FFFFFF" d="M50.03,21.07c1.47-0.02,2.94,0.08,4.41,0.19c4.64,0.36,9.13,1.36,13.5,2.94c3.01,1.09,5.89,2.44,8.65,4.05
				c2.3,1.34,4.49,2.84,6.58,4.48c1.03,0.81,1.65,1.86,1.8,3.15c0.25,2.07-0.85,4.03-2.76,4.82c-1.59,0.65-3.14,0.51-4.57-0.49
				c-0.81-0.57-1.61-1.17-2.43-1.73c-3.02-2.04-6.22-3.73-9.63-5.02c-2.36-0.9-4.77-1.61-7.25-2.06c-1.11-0.2-2.22-0.38-3.33-0.54
				c-0.62-0.09-1.26-0.08-1.88-0.15c-1.6-0.19-3.21-0.1-4.81-0.1c-0.9,0-1.79,0.09-2.68,0.2c-0.66,0.09-1.33,0.14-1.98,0.25
				c-0.98,0.16-1.96,0.31-2.93,0.52c-4.19,0.9-8.15,2.42-11.92,4.46c-2.05,1.11-4.01,2.37-5.89,3.76c-0.15,0.11-0.31,0.23-0.46,0.34
				c-0.84,0.63-1.77,0.95-2.83,0.93c-1.93-0.03-3.31-0.92-4.17-2.62c-0.81-1.61-0.56-3.74,0.79-5.17c0.2-0.21,0.41-0.4,0.64-0.58
				c3.11-2.47,6.45-4.57,10.01-6.31c2.89-1.41,5.89-2.54,8.98-3.41c2.01-0.56,4.04-1,6.1-1.31c1.19-0.18,2.39-0.29,3.58-0.4
				C47.05,21.13,48.54,21.05,50.03,21.07z"/>
			<path fill="#FFFFFF" d="M49.82,36.67c1.47,0,2.67,0.09,3.87,0.19c3.89,0.34,7.63,1.3,11.24,2.78c2.68,1.1,5.21,2.47,7.61,4.08
				c1.19,0.8,1.92,1.92,2.12,3.33c0.29,2.07-0.62,3.89-2.31,4.88c-1.76,1.03-3.54,0.97-5.24-0.14c-1.39-0.91-2.8-1.79-4.29-2.53
				c-2.49-1.23-5.1-2.13-7.84-2.61c-0.86-0.15-1.73-0.25-2.6-0.35c-1.22-0.14-2.44-0.1-3.66-0.08c-0.68,0.01-1.36,0.13-2.05,0.19
				c-0.76,0.07-1.51,0.21-2.26,0.36c-1.88,0.37-3.69,0.95-5.45,1.69c-2,0.84-3.88,1.88-5.67,3.09c-0.39,0.27-0.8,0.52-1.24,0.71
				c-2.7,1.13-5.82-0.37-6.55-3.25c-0.52-2.07,0.24-4.09,1.94-5.24c1.96-1.33,4.02-2.5,6.18-3.48c2.33-1.07,4.74-1.91,7.23-2.52
				c1.75-0.42,3.51-0.72,5.3-0.89C47.45,36.75,48.76,36.69,49.82,36.67z"/>
			<path fill="#FFFFFF" d="M36.02,59.59c0.06-1.85,0.83-3.31,2.47-4.24c2.34-1.33,4.85-2.23,7.5-2.71c0.77-0.14,1.55-0.2,2.33-0.28
				c0.53-0.05,1.07-0.09,1.6-0.09c3.47,0.02,6.78,0.74,9.92,2.21c0.54,0.25,1.07,0.52,1.59,0.8c1.38,0.75,2.2,1.9,2.5,3.44
				c0.49,2.49-1.18,5.08-3.78,5.61c-1.15,0.24-2.23,0.07-3.27-0.47c-1.24-0.64-2.54-1.14-3.91-1.43c-0.88-0.18-1.76-0.28-2.66-0.31
				c-2.5-0.07-4.83,0.56-7.05,1.67c-0.46,0.23-0.92,0.44-1.44,0.54c-1.5,0.28-2.84-0.07-4.02-1.02c-0.98-0.79-1.53-1.84-1.75-3.07
				c-0.01-0.06-0.02-0.11-0.02-0.17C36.02,59.93,36.02,59.76,36.02,59.59z"/>
			<path fill="#FFFFFF" d="M49.97,78.93c-2.71,0.1-5.4-2.26-5.37-5.46c0.03-2.88,2.46-5.35,5.47-5.32c2.72,0.02,5.37,2.25,5.34,5.45
				C55.37,76.81,52.68,79.04,49.97,78.93z"/>
		</g>
	</g>
</g>
</svg>
