<?xml version="1.0" encoding="utf-8"?>
<!-- Generator: Adobe Illustrator 27.2.0, SVG Export Plug-In . SVG Version: 6.00 Build 0)  -->
<svg version="1.1" id="Слой_1" xmlns="http://www.w3.org/2000/svg" xmlns:xlink="http://www.w3.org/1999/xlink" x="0px" y="0px"
	 viewBox="0 0 62 67" style="enable-background:new 0 0 62 67;" xml:space="preserve">
<style type="text/css">
	.st0{fill:#D24F16;}
</style>
<path class="st0" d="M48.98,4.61c-1.4,0-2.75,0.22-4.01,0.62C41.23,1.97,36.34,0,30.99,0C25.64,0,20.74,1.98,17,5.25
	c-1.3-0.41-2.69-0.64-4.13-0.64C5.77,4.61,0,10.13,0,16.91c0,5.75,4.14,10.58,9.73,11.93v32.84c0,2.93,2.4,5.32,5.35,5.32H46.9
	c2.95,0,5.35-2.39,5.35-5.32V28.82c5.6-1.37,9.75-6.19,9.75-11.9C62,10.13,56.16,4.61,48.98,4.61z M48.69,61.68
	c0,0.98-0.8,1.77-1.78,1.77H15.08c-0.98,0-1.78-0.8-1.78-1.77V56h35.39V61.68z M52.25,25.12c-1.02,0.35-2.12,0.54-3.27,0.54
	c-0.1,0-0.19,0-0.29-0.01v3.55v23.24H45V37.72c0-0.98-0.8-1.77-1.78-1.77s-1.78,0.79-1.78,1.77v14.73h-3.62V38.9
	c0-0.98-0.8-1.77-1.78-1.77s-1.78,0.79-1.78,1.77v13.55h-3.68V39.98c0-1.1-0.8-1.99-1.78-1.99c-0.98,0-1.78,0.89-1.78,1.99v12.47
	h-3.2h-3.57H13.3V29.2v-0.01h9.53c0.98,0,1.78-0.79,1.78-1.77s-0.8-1.77-1.78-1.77H12.45c-0.95-0.04-1.87-0.21-2.72-0.5
	c-3.59-1.21-6.16-4.45-6.16-8.23c0-4.82,4.17-8.75,9.3-8.75c0.44,0,0.87,0.03,1.3,0.08c1.31,0.17,2.54,0.58,3.63,1.2
	c0.82-0.92,1.74-1.75,2.73-2.48c2.93-2.15,6.56-3.42,10.47-3.42c3.9,0,7.51,1.27,10.44,3.4c1,0.73,1.91,1.55,2.74,2.47
	c1.09-0.62,2.32-1.04,3.64-1.19c0.38-0.05,0.77-0.07,1.17-0.07c5.21,0,9.45,3.93,9.45,8.75C58.43,20.67,55.86,23.89,52.25,25.12z"/>
</svg>
