<svg width="87" height="95" viewBox="0 0 87 95" fill="none" xmlns="http://www.w3.org/2000/svg">
<g clip-path="url(#clip0_7442_26441)">
<g clip-path="url(#clip1_7442_26441)">
<path d="M33.1902 2.68164C31.8064 2.68164 30.6875 3.80057 30.6875 5.18429V22.532C30.6875 23.9158 31.8064 25.0347 33.1902 25.0347C34.5739 25.0347 35.6928 23.9158 35.6928 22.532V5.18429C35.6928 3.80057 34.5739 2.68164 33.1902 2.68164Z" fill="#D45927"/>
<path d="M84.4786 17.7836L45.5209 18.5523V7.99503L84.7349 4.99697C86.11 4.86031 87.1179 3.63888 86.9813 2.2637C86.8446 0.888523 85.6232 -0.119372 84.248 0.017292L45.5209 4.52719V3.52784C45.5209 2.14412 44.402 1.02519 43.0183 1.02519C41.6346 1.02519 40.5156 2.14412 40.5156 3.52784V22.5412C40.5156 23.9249 41.6346 25.0438 43.0183 25.0438C44.402 25.0438 45.5209 23.9249 45.5209 22.5412V22.0201L84.4786 22.7889C85.8623 22.7889 86.9813 21.6699 86.9813 20.2862C86.9813 18.9025 85.8623 17.7836 84.4786 17.7836Z" fill="#D45927"/>
<path d="M60.3428 78.8896C60.189 78.8811 60.0353 78.864 59.873 78.864H27.2531C26.9285 78.864 26.6125 78.8896 26.2965 78.9409C20.4114 76.3272 15.389 72.4067 11.7076 67.5807C8.02623 62.7548 5.68587 57.032 5.19046 50.8223H81.9698C80.9363 63.0452 72.2667 73.611 60.3342 78.8982M59.873 88.6952H27.2531C25.9206 88.6952 24.8359 87.6105 24.8359 86.278C24.8359 84.9455 25.9206 83.8608 27.2531 83.8608H59.873C61.2055 83.8608 62.2902 84.9455 62.2902 86.278C62.2902 87.6105 61.2055 88.6952 59.873 88.6952ZM85.8391 47.1837C85.0191 46.3124 83.8575 45.8085 82.6617 45.8085H25.7071V6.29562C25.7071 4.92044 24.5882 3.79297 23.2044 3.79297C21.8207 3.79297 20.7018 4.92044 20.7018 6.29562V7.40601L0.176616 9.79763V11.4632L20.7103 9.89158V19.031L0.176616 19.441V21.1065L20.7103 21.508V45.7999H4.31069C3.17467 45.7999 2.06428 46.2783 1.27847 47.1068C0.492651 47.9268 0.0826601 49.0543 0.14245 50.1817C0.851393 63.7968 9.13663 75.4901 21.2143 81.9902C20.3516 83.2031 19.8391 84.6722 19.8391 86.2695C19.8391 90.3608 23.1703 93.692 27.2616 93.692H59.8815C63.9729 93.692 67.3041 90.3608 67.3041 86.2695C67.3041 84.6039 66.7489 83.075 65.8179 81.8364C68.4572 80.4015 70.9598 78.7188 73.2575 76.7884C81.5342 69.8186 86.4199 60.4486 87.0178 50.4038C87.0947 49.2165 86.6591 48.0464 85.8476 47.1837" fill="#D45927"/>
</g>
</g>
<defs>
<clipPath id="clip0_7442_26441">
<rect width="87" height="94.0161" fill="white"/>
</clipPath>
<clipPath id="clip1_7442_26441">
<rect width="86.8924" height="93.7" fill="white" transform="translate(0.132812)"/>
</clipPath>
</defs>
</svg>
