<?xml version="1.0" encoding="utf-8"?>
<!-- Generator: Adobe Illustrator 27.2.0, SVG Export Plug-In . SVG Version: 6.00 Build 0)  -->
<svg version="1.1" id="Слой_1" xmlns="http://www.w3.org/2000/svg" xmlns:xlink="http://www.w3.org/1999/xlink" x="0px" y="0px"
	 viewBox="0 0 100 100" style="enable-background:new 0 0 100 100;" xml:space="preserve">

<g>
	<circle fill="#D24F16" cx="50" cy="50" r="50"/>
	<g>
		<path fill="#FFFFFF" d="M34.31,84.32L34.31,84.32c-0.14,0.49-0.64,0.78-1.11,0.65l-15.33-4.31c-0.47-0.13-0.75-0.64-0.61-1.13l0,0
			c0.14-0.49,0.64-0.78,1.11-0.65l2.68,0.75c2.28,0.64,4.66-0.76,5.33-3.12l5.74-20.41c0.46-1.63-0.06-3.34-1.28-4.44
			c-2.14-1.94-3.12-5.07-2.26-8.13l0.43-1.53L38.27,15L50,18.3l-6.17,27.86l-0.43,1.53c-0.86,3.06-3.32,5.22-6.16,5.76
			c-1.61,0.31-2.95,1.5-3.41,3.13L28.1,76.98c-0.67,2.37,0.64,4.8,2.92,5.44l2.68,0.75C34.18,83.32,34.45,83.82,34.31,84.32z"/>
		<path fill="#FFFFFF" d="M65.69,84.32L65.69,84.32c0.14,0.49,0.64,0.78,1.11,0.65l15.33-4.31c0.47-0.13,0.75-0.64,0.61-1.13l0,0
			c-0.14-0.49-0.64-0.78-1.11-0.65l-2.68,0.75c-2.28,0.64-4.66-0.76-5.33-3.12l-5.74-20.41c-0.46-1.63,0.06-3.34,1.28-4.44
			c2.14-1.94,3.12-5.07,2.26-8.13l-0.43-1.53L61.73,15L50,18.3l6.17,27.86l0.43,1.53c0.86,3.06,3.32,5.22,6.16,5.76
			c1.61,0.31,2.95,1.5,3.41,3.13l5.74,20.41c0.67,2.37-0.64,4.8-2.92,5.44l-2.68,0.75C65.82,83.32,65.55,83.82,65.69,84.32z"/>
	</g>
</g>
</svg>
