<?xml version="1.0" encoding="utf-8"?>
<!-- Generator: Adobe Illustrator 27.2.0, SVG Export Plug-In . SVG Version: 6.00 Build 0)  -->
<svg version="1.1" id="Слой_1" xmlns="http://www.w3.org/2000/svg" xmlns:xlink="http://www.w3.org/1999/xlink" x="0px" y="0px"
	 viewBox="0 0 62 67" style="enable-background:new 0 0 62 67;" xml:space="preserve">
<style type="text/css">
	.st0{fill:#D24F16;}
</style>
<path class="st0" d="M50.1,21.78c0-6.04-4.92-10.97-10.97-10.97c-5.44,0-9.97,3.99-10.82,9.19h-3.15
	C19.82,1.67,18.37,0.84,17.45,0.3c-0.51-0.3-1.1-0.38-1.65-0.22c-0.95,0.27-3.06,0.88-3.9,13.2c-0.07,1.04,0.76,1.93,1.8,1.93
	c0.95,0,1.73-0.73,1.8-1.67c0.25-3.51,0.61-6.51,1.04-8.38c1.2,2.75,2.93,8.07,4.94,14.86H18.7c-1.31,0-2.37,1.06-2.37,2.37v12.19
	c0,0.68-0.16,1.34-0.46,1.95c-0.06,0.13-0.13,0.26-0.21,0.39c-1.01,1.72-1.73,3.63-2.08,5.65c-0.15,0.89-0.23,1.79-0.23,2.71
	c0,6.39,4.04,11.38,10.11,13.1c0.66,0.19,1.35,0.34,2.05,0.45c0.58,0.09,1.01,0.59,1.01,1.17v1.08c0,1.13-0.79,2.08-1.85,2.32
	c-0.17,0.04-0.34,0.06-0.53,0.06H19.3c-1.31,0-2.37,1.06-2.37,2.37c0,0.33,0.13,0.63,0.35,0.84c0.21,0.21,0.51,0.35,0.84,0.35h20.91
	c0.66,0,1.19-0.53,1.19-1.19c0-0.66-0.27-1.25-0.7-1.68c-0.43-0.43-1.02-0.7-1.68-0.7h-5.36c-0.95,0-1.78-0.57-2.16-1.38
	c-0.14-0.3-0.22-0.64-0.22-0.99v-1.08c0-0.59,0.43-1.08,1.01-1.17c0.24-0.04,0.48-0.08,0.72-0.13c1.21-0.24,2.34-0.6,3.4-1.07
	c4.9-2.18,8.04-6.72,8.04-12.36c0-3.31-1.03-6.46-2.76-9.08c-0.49-0.75-0.78-1.62-0.78-2.52v-0.93C45.5,32.43,50.1,27.63,50.1,21.78
	z M30.83,46.49l2.52,2.52l-2.52,2.52l-2.52-2.52L30.83,46.49z M34.33,54.07c-0.57,0.3-1.19,0.55-1.83,0.76
	c0.15-0.1,0.3-0.22,0.43-0.36l3.36-3.36c1.16-1.16,1.16-3.04,0-4.2l-3.36-3.36c-0.58-0.58-1.33-0.86-2.09-0.87
	c1.06-0.54,1.74-1.7,1.61-2.95l-0.49-4.72c-0.17-1.63-1.63-2.82-3.26-2.65l-4.72,0.49c-1.63,0.17-2.81,1.63-2.65,3.26l0.49,4.72
	c0.17,1.63,1.63,2.81,3.26,2.65l4.35-0.45c-0.25,0.13-0.49,0.31-0.71,0.52l-3.08,3.08c-1.31,1.31-1.31,3.45,0,4.76l3.08,3.08
	c0.48,0.48,1.08,0.76,1.71,0.84c-0.11,0.02-0.23,0.03-0.35,0.05c-0.58,0.07-1.17,0.11-1.78,0.11c-0.61,0-1.2-0.04-1.78-0.11
	c-0.03,0-0.06-0.01-0.09-0.01c-1.42-0.18-2.74-0.58-3.91-1.16c-3.44-1.69-5.62-4.94-5.62-8.93c0-0.91,0.1-1.81,0.3-2.68
	c0.08-0.37,0.18-0.74,0.3-1.1c0.28-0.89,0.65-1.74,1.1-2.54c0.4-0.7,0.71-1.45,0.92-2.22c0.23-0.82,0.35-1.66,0.35-2.51V23.56h16.28
	v9.67c0,1.77,0.46,3.52,1.42,5.01c0.85,1.31,1.48,2.78,1.82,4.33c0.2,0.87,0.3,1.77,0.3,2.68C39.71,49.15,37.63,52.34,34.33,54.07z
	 M28.85,39.51l-3.54,0.37l-0.37-3.54l3.54-0.37L28.85,39.51z M37.36,20h-5.4c0.8-3.23,3.72-5.62,7.18-5.62c4.08,0,7.4,3.32,7.4,7.4
	c0,3.88-3,7.08-6.81,7.38v-6.78C39.73,21.07,38.67,20,37.36,20z"/>
</svg>
