<?xml version="1.0" encoding="utf-8"?>
<!-- Generator: Adobe Illustrator 27.2.0, SVG Export Plug-In . SVG Version: 6.00 Build 0)  -->
<svg version="1.1" id="Слой_1" xmlns="http://www.w3.org/2000/svg" xmlns:xlink="http://www.w3.org/1999/xlink" x="0px" y="0px"
	 viewBox="0 0 62 67" style="enable-background:new 0 0 62 67;" xml:space="preserve">
<style type="text/css">
	.st0{fill:#D24F16;}
</style>
<g>
	<path class="st0" d="M59.86,67L1.52,66.43c-0.64-0.02-1.14-0.55-1.14-1.2v-1.27c0-0.65,0.51-1.18,1.14-1.2l58.34-0.57
		c0.97,0,1.76,0.41,1.76,2.41v0C61.62,66.59,60.83,67,59.86,67z"/>
	<path class="st0" d="M51.85,57.71h-41.7c-3.66,0-6.94-1.94-8.78-5.19c-1.83-3.25-1.83-7.12,0-10.37L22.22,5.19
		C24.06,1.94,27.34,0,31,0c3.66,0,6.94,1.94,8.78,5.19l20.85,36.97c1.83,3.25,1.83,7.12,0,10.37
		C58.79,55.77,55.51,57.71,51.85,57.71z M31,3.61c-2.39,0-4.53,1.26-5.72,3.38L4.43,43.96c-1.19,2.12-1.19,4.64,0,6.76
		c1.19,2.12,3.33,3.38,5.72,3.38h41.7c2.39,0,4.53-1.26,5.72-3.38c1.19-2.12,1.19-4.64,0-6.76L36.72,6.99
		C35.53,4.88,33.39,3.61,31,3.61z"/>
	<g>
		<path class="st0" d="M16.88,50.58c-0.09,0-0.18,0-0.27-0.01c-3.89-0.15-6.93-3.52-6.78-7.5c0.07-1.93,0.87-3.71,2.26-5.02
			c1.38-1.31,3.18-1.99,5.07-1.92c1.88,0.07,3.63,0.89,4.91,2.31c1.28,1.42,1.95,3.26,1.87,5.19l0,0
			C23.79,47.52,20.65,50.58,16.88,50.58z M16.88,39.74c-0.89,0-1.74,0.34-2.39,0.96c-0.69,0.66-1.09,1.55-1.13,2.51
			c-0.07,1.99,1.45,3.67,3.39,3.75c1.94,0.09,3.59-1.48,3.66-3.47l0,0c0.04-0.96-0.3-1.89-0.94-2.59c-0.64-0.71-1.51-1.12-2.45-1.16
			C16.97,39.75,16.92,39.74,16.88,39.74z"/>
		<path class="st0" d="M31,50.58c-0.09,0-0.18,0-0.27-0.01c-3.89-0.15-6.93-3.52-6.78-7.5c0.07-1.93,0.87-3.71,2.26-5.02
			c1.38-1.31,3.18-1.99,5.07-1.92c1.88,0.07,3.63,0.89,4.91,2.31c1.28,1.42,1.95,3.26,1.87,5.19l0,0
			C37.91,47.52,34.77,50.58,31,50.58z M31,39.74c-0.89,0-1.74,0.34-2.39,0.96c-0.69,0.66-1.09,1.55-1.13,2.51
			c-0.07,1.99,1.45,3.67,3.39,3.75c1.94,0.09,3.59-1.48,3.66-3.47l0,0c0.04-0.96-0.3-1.89-0.94-2.59c-0.64-0.71-1.51-1.12-2.45-1.16
			C31.09,39.75,31.04,39.74,31,39.74z"/>
		<g>
			<path class="st0" d="M23.94,38.07c-0.09,0-0.18,0-0.27-0.01c-3.89-0.15-6.93-3.52-6.78-7.5c0.07-1.93,0.87-3.71,2.26-5.02
				c1.38-1.31,3.18-1.99,5.07-1.92c1.88,0.07,3.63,0.89,4.91,2.31c1.28,1.42,1.95,3.26,1.87,5.19l0,0
				C30.85,35.01,27.71,38.07,23.94,38.07z M23.94,27.23c-0.89,0-1.74,0.34-2.39,0.96c-0.69,0.66-1.09,1.55-1.13,2.51
				c-0.07,1.99,1.45,3.67,3.39,3.75c1.94,0.09,3.59-1.48,3.66-3.47l0,0c0.04-0.96-0.3-1.89-0.94-2.59
				c-0.64-0.71-1.51-1.12-2.45-1.16C24.03,27.23,23.98,27.23,23.94,27.23z"/>
			<path class="st0" d="M31,25.56c-0.09,0-0.18,0-0.27-0.01c-3.89-0.15-6.93-3.52-6.78-7.5c0.07-1.93,0.87-3.71,2.26-5.02
				c1.38-1.31,3.18-1.99,5.07-1.92c1.88,0.07,3.63,0.89,4.91,2.31c1.28,1.42,1.95,3.26,1.87,5.19l0,0
				C37.91,22.5,34.77,25.56,31,25.56z M31,14.72c-0.89,0-1.74,0.34-2.39,0.96c-0.69,0.66-1.09,1.55-1.13,2.51
				c-0.07,1.99,1.45,3.67,3.39,3.75c1.94,0.09,3.59-1.48,3.66-3.47l0,0c0.04-0.96-0.3-1.89-0.94-2.59
				c-0.64-0.71-1.51-1.12-2.45-1.16C31.09,14.72,31.04,14.72,31,14.72z"/>
			<path class="st0" d="M38.06,38.07c-0.09,0-0.18,0-0.27-0.01c-3.89-0.15-6.93-3.52-6.78-7.5c0.07-1.93,0.87-3.71,2.26-5.02
				c1.38-1.31,3.18-1.99,5.07-1.92c1.88,0.07,3.63,0.89,4.91,2.31c1.28,1.42,1.95,3.26,1.87,5.19l0,0
				C44.97,35.01,41.83,38.07,38.06,38.07z M38.06,27.23c-0.89,0-1.74,0.34-2.39,0.96c-0.69,0.66-1.09,1.55-1.13,2.51
				c-0.07,1.99,1.45,3.67,3.39,3.75c1.94,0.09,3.59-1.48,3.66-3.47l0,0c0.04-0.96-0.3-1.89-0.94-2.59
				c-0.64-0.71-1.51-1.12-2.45-1.16C38.15,27.23,38.1,27.23,38.06,27.23z"/>
		</g>
		<path class="st0" d="M45.12,50.58c-0.09,0-0.18,0-0.27-0.01c-3.89-0.15-6.93-3.52-6.78-7.5c0.07-1.93,0.87-3.71,2.26-5.02
			c1.38-1.31,3.18-1.99,5.07-1.92c1.88,0.07,3.63,0.89,4.91,2.31c1.28,1.42,1.95,3.26,1.87,5.19l0,0
			C52.03,47.52,48.89,50.58,45.12,50.58z M45.12,39.74c-0.89,0-1.74,0.34-2.39,0.96c-0.69,0.66-1.09,1.55-1.13,2.51
			c-0.07,1.99,1.45,3.67,3.39,3.75c1.94,0.09,3.59-1.48,3.66-3.47l0,0c0.04-0.96-0.3-1.89-0.94-2.59c-0.64-0.71-1.51-1.12-2.45-1.16
			C45.21,39.75,45.16,39.74,45.12,39.74z"/>
	</g>
</g>
</svg>
