<?xml version="1.0" encoding="utf-8"?>
<!-- Generator: Adobe Illustrator 27.2.0, SVG Export Plug-In . SVG Version: 6.00 Build 0)  -->
<svg version="1.1" id="Слой_1" xmlns="http://www.w3.org/2000/svg" xmlns:xlink="http://www.w3.org/1999/xlink" x="0px" y="0px"
	 viewBox="0 0 62 67" style="enable-background:new 0 0 62 67;" xml:space="preserve">
<style type="text/css">
	.st0{fill:#D24F16;}
</style>
<g>
	<path class="st0" d="M61.4,43.42c-0.55-0.6-1.41-0.95-2.36-0.95H2.96c-0.95,0-1.81,0.34-2.36,0.94c-0.44,0.48-0.65,1.09-0.59,1.71
		c0.4,4.56,3.92,8.72,9.91,11.73c1.62,0.82,3.39,1.53,5.27,2.13c-0.51,0.81-0.8,1.76-0.8,2.78c0,2.89,2.35,5.24,5.24,5.24h22.76
		c2.89,0,5.24-2.35,5.24-5.24c0-1.06-0.31-2.04-0.86-2.86c8.7-2.82,14.69-7.88,15.23-13.78C62.05,44.5,61.84,43.89,61.4,43.42z
		 M42.38,63.47H19.62c-0.94,0-1.71-0.77-1.71-1.71c0-0.84,0.61-1.54,1.41-1.68c0.1-0.02,0.2-0.03,0.3-0.03h22.76
		c0.02,0,0.05,0,0.07,0c0.91,0.03,1.64,0.78,1.64,1.7C44.08,62.71,43.32,63.47,42.38,63.47z M41.95,56.53H19.62
		C11.25,54.62,5.02,50.66,3.74,46h54.51C56.91,50.61,50.44,54.61,41.95,56.53z"/>
	<path class="st0" d="M18.62,31.52c2.53,2.56,5.81,4.04,9.77,4.41l1.56-0.18c4.99-0.58,11.24-2.19,15.24-9.49
		c0.82-1.5,1.35-3.03,1.67-4.54c0.3-1.39,0.41-2.76,0.4-4.05c-0.02-3.34-0.84-6.18-1.37-7.7l-0.14-0.4
		c-0.17-0.48-0.64-0.8-1.15-0.78l-0.43,0.02c-1.37,0.05-4.14,0.47-7.07,1.66c-1.18,0.47-2.38,1.07-3.52,1.83
		c-1.46,0.95-2.82,2.13-3.93,3.62c-0.74,0.98-1.32,1.99-1.76,3.02c-0.31-0.32-0.63-0.62-0.98-0.92c-1.14-0.97-4.16-3.54-9.45-3.24
		l-0.39,0.02c-0.48,0.03-0.89,0.34-1.04,0.79l-0.13,0.37c-0.87,2.51-1.28,4.34-1.09,7.41C14.96,26.33,16.29,29.16,18.62,31.52z
		 M32.46,18.02c1.15-1.53,2.68-2.66,4.27-3.5c1.33-0.7,2.7-1.2,3.92-1.54h0c0.87-0.25,1.67-0.41,2.32-0.51
		c0.2,0.73,0.4,1.59,0.55,2.55l0.01,0.01l-0.01,0.01c0.2,1.33,0.29,2.83,0.13,4.4c-0.18,1.68-0.64,3.43-1.56,5.11
		c-1.98,3.62-4.7,5.82-8.74,6.95l7.51-12.14c0.46-0.75,0.26-1.73-0.45-2.23l-0.16-0.12c-0.78-0.56-1.88-0.33-2.38,0.48l-7.3,11.81
		C29.86,25.12,29.97,21.33,32.46,18.02z M18.83,18.29c3.14,0.16,4.95,1.71,5.78,2.41c0.8,0.67,1.4,1.37,2.17,2.42
		c-0.34,2.95,0.09,6.01,0.76,9.14c-2.58-0.44-4.73-1.52-6.41-3.22c-1.72-1.74-2.69-3.78-2.82-5.9
		C18.18,21.11,18.35,19.85,18.83,18.29z"/>
</g>
</svg>
