<?xml version="1.0"?>
<svg xmlns="http://www.w3.org/2000/svg" viewBox="5 9 52 49" width="52" height="49">
  <g fill="none" stroke="#D24F16" stroke-width="2.6" stroke-linecap="round" stroke-linejoin="round">
    <path d="M13,35 C13,49 22,55 31,55 C40,55 49,49 49,35"></path>
    <line x1="11" y1="35" x2="51" y2="35"></line>
    <path d="M13,37 C8,37 8,44 13,44" stroke-width="2.2"></path>
    <path d="M49,37 C54,37 54,44 49,44" stroke-width="2.2"></path>
    <path d="M27,33 C24,29 30,27 27,22 C24,18 30,16 28,12" stroke-width="1.9"></path>
    <path d="M35,33 C32,29 38,27 35,22 C32,18 38,16 36,12" stroke-width="1.9"></path>
  </g>
</svg>