<?xml version="1.0" encoding="utf-8"?>
<!-- Generator: Adobe Illustrator 27.2.0, SVG Export Plug-In . SVG Version: 6.00 Build 0)  -->
<svg version="1.1" id="Слой_1" xmlns="http://www.w3.org/2000/svg" xmlns:xlink="http://www.w3.org/1999/xlink" x="0px" y="0px"
	 viewBox="0 0 62 67" style="enable-background:new 0 0 62 67;" xml:space="preserve">
<style type="text/css">
	.st0{fill:#D24F16;}
</style>
<g>
	<path class="st0" d="M29.7,26.44c-0.72,0.66-1.86,0.49-2.36-0.34l0,0l-0.25-0.42c-0.37-0.62-0.26-1.41,0.27-1.91
		c0.67-0.63,1.39-1.53,1.44-2.52c0.08-1.46-1.35-2.86-2.57-3.79c-2.78-2.12-4.11-4.42-3.95-6.82c0.15-2.2,1.51-3.84,2.64-4.84
		c0.73-0.65,1.87-0.46,2.36,0.39l0.03,0.05l0.21,0.36c0.36,0.63,0.24,1.42-0.3,1.91c-0.65,0.59-1.34,1.44-1.4,2.37
		c-0.09,1.42,1.35,2.82,2.57,3.75c2.76,2.11,4.1,4.4,3.96,6.82C32.21,23.71,30.83,25.41,29.7,26.44z"/>
	<path class="st0" d="M34.7,0.73l0.14,0.23c0.4,0.68,0.29,1.56-0.29,2.1c-0.63,0.59-1.27,1.41-1.33,2.31
		c-0.09,1.42,1.35,2.82,2.57,3.75c2.76,2.11,4.1,4.4,3.96,6.82c-0.12,2.15-1.38,3.79-2.48,4.83c-0.79,0.74-2.07,0.55-2.62-0.38
		l-0.08-0.13c-0.41-0.69-0.28-1.56,0.3-2.12c0.64-0.62,1.29-1.49,1.34-2.42c0.08-1.46-1.35-2.86-2.57-3.79
		c-2.78-2.12-4.11-4.42-3.95-6.82c0.14-2.07,1.36-3.65,2.45-4.66c0.81-0.75,2.11-0.57,2.66,0.39"/>
	<path class="st0" d="M13.9,48.54l-0.4-0.25c-0.75-0.47-0.98-1.46-0.51-2.22l2.13-3.38c0.47-0.75,1.47-0.98,2.22-0.51l0.4,0.25
		c0.75,0.47,0.98,1.46,0.51,2.22l-2.13,3.38C15.65,48.78,14.66,49.01,13.9,48.54z"/>
	<path class="st0" d="M24.17,48.03l-2.13-3.38c-0.47-0.75-0.24-1.74,0.51-2.22l0.4-0.25c0.75-0.47,1.75-0.24,2.22,0.51l2.13,3.38
		c0.47,0.75,0.24,1.74-0.51,2.22l-0.4,0.25C25.64,49.01,24.64,48.78,24.17,48.03z"/>
	<path class="st0" d="M45.89,44.48l-2.13-3.38c-0.47-0.75-0.24-1.74,0.51-2.22l0.4-0.25c0.75-0.47,1.75-0.24,2.22,0.51l2.13,3.38
		c0.47,0.75,0.24,1.74-0.51,2.22l-0.4,0.25C47.36,45.46,46.36,45.23,45.89,44.48z"/>
	<path class="st0" d="M52.03,33.2c-0.73-0.74-1.43-1.43-2.05-2.08c-0.71-0.75-0.91-1.52-1.13-2.41c-0.34-1.36-0.85-3.41-3.71-4.1
		c-1.24-0.3-5.56-0.3-6.8,0c-2.94,0.71-3.26,2.89-3.45,4.19c-0.13,0.9-0.24,1.61-0.9,2.32c-0.75,0.79-1.62,1.65-2.54,2.57
		c-0.72,0.72-1.47,1.46-2.22,2.23c-0.07-0.07-0.14-0.15-0.21-0.22c-0.25-0.26-0.49-0.5-0.73-0.75c-0.72-0.75-0.91-1.52-1.13-2.41
		c-0.02-0.08-0.04-0.17-0.07-0.26c-0.34-1.35-0.96-3.2-3.65-3.84c-1.24-0.3-5.56-0.3-6.8,0c-2.94,0.71-3.26,2.89-3.45,4.19
		c-0.13,0.9-0.24,1.61-0.9,2.32c-0.75,0.79-1.62,1.66-2.54,2.57C5.4,41.86,0,47.22,0,52.43C0,61.83,7.11,67,20.02,67
		c6.98,0,12.28-1.47,15.71-4.28c1.2,0.19,2.48,0.32,3.83,0.38c0.7,0.04,1.42,0.05,2.16,0.05C54.8,63.15,62,57.98,62,48.58
		C62,43.19,56.47,37.65,52.03,33.2z M36.58,53.23c-0.08,1.36-0.39,2.55-0.86,3.58c-2.46,5.27-9.55,6.51-15.69,6.51
		c-10.84,0-16.33-3.66-16.33-10.88c0-3.68,5-8.65,8.65-12.27c0.94-0.94,1.83-1.82,2.62-2.66c1.47-1.55,1.71-3.21,1.87-4.31
		c0.05-0.34,0.13-0.86,0.21-0.97c0,0,0.09-0.09,0.45-0.17c0.37-0.08,1.45-0.13,2.54-0.13c1.09,0,2.18,0.04,2.54,0.13
		c0.66,0.16,0.69,0.2,1,1.4c0.16,0.65,0.36,1.44,0.78,2.28c0.29,0.58,0.7,1.19,1.27,1.79c0.38,0.39,0.77,0.79,1.18,1.21
		c0.3,0.3,0.61,0.61,0.92,0.93c3.75,3.76,8.89,8.91,8.89,12.78C36.61,52.71,36.6,52.97,36.58,53.23z M41.73,59.47
		c-0.5,0-0.99-0.01-1.47-0.02c-0.57-0.02-1.12-0.05-1.66-0.09c0.39-0.68,0.71-1.4,0.96-2.16c0.38-1.13,0.61-2.35,0.69-3.66
		c0.02-0.36,0.04-0.73,0.04-1.1c0-2.5-1.19-5.04-2.91-7.48c0.18-0.12,0.34-0.28,0.46-0.48l2.13-3.38c0.47-0.75,0.24-1.74-0.51-2.22
		l-0.4-0.25c-0.75-0.47-1.75-0.24-2.22,0.51L35.04,42c-1.06-1.22-2.2-2.4-3.31-3.53c0.76-0.71,1.52-1.39,2.31-2.16
		c0.94-0.94,1.83-1.82,2.62-2.65c1.47-1.56,1.71-3.22,1.87-4.32c0.05-0.34,0.13-0.86,0.21-0.97c0,0,0.09-0.09,0.45-0.17
		c0.37-0.08,1.45-0.12,2.54-0.12s2.17,0.04,2.54,0.12c0.66,0.16,0.69,0.2,1,1.4c0.27,1.1,0.65,2.61,2.05,4.06
		c0.65,0.68,1.36,1.39,2.1,2.14c3.75,3.76,8.89,8.91,8.89,12.78C58.31,57.58,49.29,59.47,41.73,59.47z"/>
</g>
</svg>
