<?xml version="1.0" encoding="utf-8"?>
<!-- Generator: Adobe Illustrator 27.2.0, SVG Export Plug-In . SVG Version: 6.00 Build 0)  -->
<svg version="1.1" id="Слой_1" xmlns="http://www.w3.org/2000/svg" xmlns:xlink="http://www.w3.org/1999/xlink" x="0px" y="0px"
	 viewBox="0 0 100 100" style="enable-background:new 0 0 100 100;" xml:space="preserve">

<g>
	<circle fill="#D24F16" cx="50" cy="50.05" r="50"/>
	<path fill="#FFFFFF" d="M84.11,43.88c-2.76-2.76-4.96-4.95-7.21-7.22c-0.18-0.17-0.36-0.34-0.53-0.52c-1.61-1.61-3.28-3.28-5.23-5.23
		c-0.57-0.57-1.34-0.89-2.14-0.89H53.08v-5.03c0-1.65-1.34-3-3-3H18c-1.66,0-3,1.35-3,3V64.7c0,1.66,1.34,3,3,3h2.96
		c0,5.74,4.67,10.4,10.4,10.4c5.73,0,10.39-4.66,10.39-10.4h16.46c0,5.59,4.55,10.13,10.13,10.13c5.59,0,10.14-4.54,10.14-10.13H82
		c1.65,0,3-1.34,3-3V46.01C84.73,45.37,84.38,44.51,84.11,43.88z M31.36,73.36c-3.12,0-5.66-2.54-5.66-5.66
		c0-0.18,0.01-0.35,0.03-0.52c0.26-2.87,2.69-5.13,5.63-5.13c2.94,0,5.36,2.26,5.63,5.13c0.01,0.17,0.02,0.34,0.02,0.52
		C37.01,70.82,34.48,73.36,31.36,73.36z M68.34,73.62c-3.26,0-5.92-2.65-5.92-5.92c0-1.65,0.68-3.14,1.77-4.21
		c1.07-1.05,2.53-1.71,4.15-1.71s3.09,0.66,4.16,1.71c1.09,1.07,1.76,2.56,1.76,4.21C74.26,70.97,71.61,73.62,68.34,73.62z
		 M80.78,48.13c0,0.55-0.44,1-1,1H63.43c-0.55,0-1-0.45-1-1V37.14c0-0.56,0.45-1,1-1h5.74c0.79,0,1.56,0.31,2.12,0.88l8.61,8.61
		c0.57,0.56,0.88,1.33,0.88,2.12V48.13z"/>
</g>
</svg>
