<?xml version="1.0" encoding="utf-8"?>
<!-- Generator: Adobe Illustrator 27.2.0, SVG Export Plug-In . SVG Version: 6.00 Build 0)  -->
<svg version="1.1" id="Слой_1" xmlns="http://www.w3.org/2000/svg" xmlns:xlink="http://www.w3.org/1999/xlink" x="0px" y="0px"
	 viewBox="0 0 62 67" style="enable-background:new 0 0 62 67;" xml:space="preserve">
<style type="text/css">
	.st0{fill:#D24F16;}
</style>
<g>
	<path class="st0" d="M51.3,52.23v1.2c0,0.62-0.47,1.14-1.09,1.19l-9,0.75c-0.69,0.06-1.29-0.49-1.29-1.19v-1.2
		c0-0.62,0.47-1.14,1.09-1.19l9-0.75C50.7,50.98,51.3,51.53,51.3,52.23z"/>
	<path class="st0" d="M51.3,45.06v1.2c0,0.62-0.47,1.14-1.09,1.19l-9,0.75c-0.69,0.06-1.29-0.49-1.29-1.19v-1.2
		c0-0.62,0.47-1.14,1.09-1.19l9-0.75C50.7,43.81,51.3,44.36,51.3,45.06z"/>
	<path class="st0" d="M51.3,37.88v1.2c0,0.62-0.47,1.14-1.09,1.19l-9,0.75c-0.69,0.06-1.29-0.49-1.29-1.19v-1.2
		c0-0.62,0.47-1.14,1.09-1.19l9-0.75C50.7,36.63,51.3,37.18,51.3,37.88z"/>
	<path class="st0" d="M51.3,30.71v1.2c0,0.62-0.47,1.14-1.09,1.19l-9,0.75c-0.69,0.06-1.29-0.49-1.29-1.19v-1.2
		c0-0.62,0.47-1.14,1.09-1.19l9-0.75C50.7,29.46,51.3,30.01,51.3,30.71z"/>
	<path class="st0" d="M51.3,23.53v1.2c0,0.62-0.47,1.14-1.09,1.19l-9,0.75c-0.69,0.06-1.29-0.49-1.29-1.19v-1.2
		c0-0.62,0.47-1.14,1.09-1.19l9-0.75C50.7,22.28,51.3,22.83,51.3,23.53z"/>
	<path class="st0" d="M22.08,52.8V54c0,0.7-0.59,1.25-1.29,1.19l-9-0.75c-0.62-0.05-1.09-0.57-1.09-1.19v-1.2
		c0-0.7,0.59-1.25,1.29-1.19l9,0.75C21.6,51.66,22.08,52.18,22.08,52.8z"/>
	<path class="st0" d="M22.08,45.62v1.2c0,0.7-0.59,1.25-1.29,1.19l-9-0.75c-0.62-0.05-1.09-0.57-1.09-1.19v-1.2
		c0-0.7,0.59-1.25,1.29-1.19l9,0.75C21.6,44.48,22.08,45,22.08,45.62z"/>
	<path class="st0" d="M22.08,38.45v1.2c0,0.7-0.59,1.25-1.29,1.19l-9-0.75c-0.62-0.05-1.09-0.57-1.09-1.19v-1.2
		c0-0.7,0.59-1.25,1.29-1.19l9,0.75C21.6,37.31,22.08,37.83,22.08,38.45z"/>
	<path class="st0" d="M31,2.42L2.58,0.01C1.19-0.11,0,0.99,0,2.39v59.78c0,1.24,0.95,2.28,2.18,2.38l8.52,0.72l11.38,0.96l7.14,0.61
		L31,67l1.78-0.15l7.14-0.61l11.38-0.96l8.52-0.72c1.23-0.1,2.18-1.14,2.18-2.38V2.39c0-1.4-1.19-2.5-2.58-2.38L31,2.42z
		 M29.21,63.25l-3.57-0.3l-2.97-0.25l-0.59-0.05L10.7,61.68l-7.14-0.61V3.69l25.65,2.18V63.25z M58.43,61.07l-7.14,0.61l-11.38,0.96
		l-3.57,0.3l-0.91,0.08l-0.75,0.06l-0.23,0.02l-0.06,0l-0.23,0.02l-1.38,0.12V5.87l25.65-2.18V61.07z"/>
	<path class="st0" d="M24.22,18.61c-0.24-1.35-0.71-2.6-1.35-3.69c-0.24-0.41-0.5-0.81-0.79-1.17c-1.13-1.44-2.61-2.45-4.26-2.85
		c-0.52-0.13-1.04-0.19-1.59-0.19c-0.17,0-0.34,0.01-0.5,0.02c-1.93,0.14-3.69,1.12-5.03,2.64c-0.15,0.16-0.29,0.33-0.41,0.51
		c-0.75,0.98-1.35,2.14-1.74,3.43c-0.33,1.1-0.52,2.29-0.52,3.53v0.03c0,1.28,0.2,2.5,0.55,3.62c0.45,1.45,1.17,2.74,2.08,3.77
		c0.01,0.01,0.02,0.02,0.03,0.04c1.45,1.65,3.4,2.66,5.53,2.66c1.75,0,3.37-0.68,4.71-1.85c0.41-0.35,0.79-0.76,1.14-1.2
		c0.52-0.65,0.96-1.39,1.32-2.2c0.48-1.06,0.8-2.24,0.94-3.5c0.05-0.45,0.08-0.92,0.08-1.39C24.42,20.07,24.35,19.32,24.22,18.61z
		 M20.85,20.83c0,0.37-0.02,0.73-0.07,1.09c-0.17,1.33-0.63,2.54-1.28,3.47c-0.84,1.22-2.01,1.98-3.27,1.98
		c-1.46,0-2.78-1.01-3.64-2.55c-0.57-1.03-0.93-2.3-0.98-3.66c0-0.11-0.01-0.22-0.01-0.33c0-1.16,0.23-2.26,0.62-3.22
		c0.73-1.78,2.04-3.06,3.54-3.28c0,0,0,0,0,0c0.15-0.02,0.31-0.04,0.46-0.04c0.33,0,0.66,0.05,0.97,0.16
		c1.46,0.46,2.68,1.93,3.27,3.85C20.72,19.08,20.85,19.94,20.85,20.83z"/>
</g>
</svg>
