<?xml version="1.0" encoding="utf-8"?>
<!-- Generator: Adobe Illustrator 27.2.0, SVG Export Plug-In . SVG Version: 6.00 Build 0)  -->
<svg version="1.1" id="Слой_1" xmlns="http://www.w3.org/2000/svg" xmlns:xlink="http://www.w3.org/1999/xlink" x="0px" y="0px"
	 viewBox="0 0 100 100" style="enable-background:new 0 0 100 100;" xml:space="preserve">

<g>
	<path fill="#FFFFFF" d="M69.88,57.06c1.8,0,3.67-0.44,5.41-1.36c5.21-2.75,7.46-8.75,5.01-13.39c-1.18-2.26-3.29-3.85-5.92-4.49
		c-2.62-0.64-5.44-0.26-7.96,1.07c-0.93,0.49-1.77,1.09-2.52,1.76c1.58-2.37,2.49-5.18,2.49-8.19c0-0.68-0.05-1.35-0.14-2.01
		c0.37-0.07,0.73-0.18,1.1-0.31c1.86-0.69,3.48-2.1,4.55-3.96c1.07-1.86,1.48-3.97,1.15-5.92c-0.33-1.98-1.39-3.57-2.96-4.47
		c-1.57-0.91-3.48-1.03-5.36-0.33c-1.85,0.69-3.47,2.09-4.55,3.95c-0.13,0.22-0.24,0.45-0.35,0.67C57.13,18.14,53.76,17,50.1,17
		s-7.03,1.15-9.76,3.08c-0.1-0.23-0.22-0.45-0.35-0.68c-1.07-1.86-2.69-3.26-4.54-3.95c-1.88-0.7-3.78-0.59-5.36,0.33
		c-1.57,0.91-2.63,2.49-2.97,4.47c-0.33,1.95,0.08,4.06,1.16,5.92c1.07,1.86,2.69,3.27,4.54,3.96c0.37,0.14,0.74,0.24,1.11,0.31
		c-0.09,0.66-0.14,1.32-0.14,2.01c0,3,0.91,5.8,2.47,8.17c-0.79-0.76-1.69-1.41-2.7-1.94c-2.52-1.33-5.34-1.71-7.96-1.07
		c-2.63,0.64-4.73,2.24-5.92,4.49c-2.45,4.64-0.2,10.64,5.01,13.39c1.37,0.72,2.8,1.14,4.22,1.29c-5.12,1.76-8.38,6.94-8.38,12.75
		c0,1.33,0.17,2.7,0.54,4.06c1.73,6.52,7.23,10.93,13.02,10.93c0.97,0,1.95-0.13,2.92-0.38c4.65-1.23,7.93-5.23,8.88-10.07
		c1.34,0.39,2.75,0.59,4.21,0.59c1.16,0,2.29-0.13,3.37-0.38c0.24,1.38,0.68,2.72,1.31,3.97c1.63,3.23,4.33,5.49,7.63,6.36
		c0.97,0.26,1.96,0.38,2.94,0.38c2.36,0,4.71-0.72,6.84-2.14c3-1.99,5.19-5.11,6.17-8.79C80.36,66.52,76.56,58.93,69.88,57.06z
		 M56.04,41.05c-0.19,0.18-0.39,0.35-0.6,0.5c-1.42,1.09-3.3,1.74-5.34,1.74c-2.03,0-3.91-0.66-5.33-1.74
		c-0.21-0.15-0.41-0.32-0.6-0.5C42.83,39.8,42,38.13,42,36.28c0-3.86,3.63-7,8.1-7c4.47,0,8.1,3.14,8.1,7
		C58.21,38.13,57.38,39.8,56.04,41.05z"/>
	<path fill="#FFFFFF" d="M54.76,34.68c0,1.45-2.04,2.58-4.65,2.58c-2.61,0-4.65-1.13-4.65-2.58c0-1.44,2.04-2.58,4.65-2.58
		C52.71,32.1,54.76,33.24,54.76,34.68z"/>
</g>
<g>
	<circle fill="#D24F16" cx="50" cy="50" r="50"/>
	<g>
		<path fill="#FFFFFF" d="M72.86,77.64c-3.77,7.02-10.8,9.17-17.69,5.43c-3.79-2.06-7.57-1.39-11.28,0.54
			c-5.49,2.86-11.84,1.18-15.25-3.99c-3.56-5.4-2.43-10.77,2.63-15.33c4.04-3.64,6.62-7.83,7.83-13.06
			c1.17-5.06,5.38-8.13,10.95-8.27c4.82-0.12,9.46,3.18,10.86,7.77c0.42,1.37,0.65,2.79,1.08,4.16c1.13,3.58,3.36,6.37,6.21,8.77
			c2.76,2.33,4.81,5.2,5.11,8.91C73.44,74.24,73.02,75.95,72.86,77.64z"/>
		<path fill="#FFFFFF" d="M46.24,34.12c-0.1,0.19-0.38,0.86-0.77,1.45c-3.36,5.07-8.65,5.24-12.34,0.4c-3.89-5.09-3.79-13.62,0.2-18.35
			c2.72-3.22,6.61-3.49,9.74-0.67C47.27,20.72,48.72,27.95,46.24,34.12z"/>
		<path fill="#FFFFFF" d="M68.72,33.19c-1.18,1.54-2.17,3.28-3.58,4.57c-2.85,2.61-6.81,2.28-9.38-0.65
			c-3.03-3.44-3.56-7.58-2.97-11.91c0.41-3.06,1.53-5.85,3.89-8.02c3.54-3.25,7.77-2.83,10.59,1.11
			C70.05,22.16,70.51,28,68.72,33.19z"/>
		<path fill="#FFFFFF" d="M82.77,53.95c-0.83,0.95-2.17,2.97-3.97,4.44c-3.87,3.15-9.52,1.52-11.47-3.07
			c-2.65-6.28-0.12-14.13,5.47-16.99c3.6-1.85,7.52-0.81,9.67,2.63C84.85,44.77,84.58,48.77,82.77,53.95z"/>
		<path fill="#FFFFFF" d="M32.87,54.82c-2.25,5.53-7.96,6.88-12.48,2.95c-4.11-3.57-5.71-10-3.74-15.04c2.13-5.44,7.86-6.94,12.36-3.23
			C33.23,42.97,34.93,49.75,32.87,54.82z"/>
	</g>
</g>
</svg>
