<?xml version="1.0" encoding="utf-8"?>
<!-- Generator: Adobe Illustrator 27.2.0, SVG Export Plug-In . SVG Version: 6.00 Build 0)  -->
<svg version="1.1" id="Слой_1" xmlns="http://www.w3.org/2000/svg" xmlns:xlink="http://www.w3.org/1999/xlink" x="0px" y="0px"
	 viewBox="0 0 62 67" style="enable-background:new 0 0 62 67;" xml:space="preserve">
<style type="text/css">
	.st0{fill:#D24F16;}
</style>
<g>
	<path class="st0" d="M37.08,11.17v-2.5c0-1.63-1.32-2.95-2.94-2.95h-0.97V1.77C33.16,0.79,32.37,0,31.4,0h0
		c-0.97,0-1.77,0.79-1.77,1.77v3.94h-0.97c-1.62,0-2.94,1.32-2.94,2.95v2.5C12.94,13.81,3.31,25.2,3.31,38.79
		c0,3.99,0.83,7.79,2.33,11.23l-4.64,2.55C0.38,52.91,0,53.56,0,54.26c0,0.7,0.38,1.34,0.99,1.68l5.66,3.11l3.09,5.68
		c0.34,0.62,0.98,1,1.67,1c0.7,0,1.34-0.38,1.67-1l1.73-3.17c4.98,3.66,11.19,5.72,17.89,5.41C47.1,66.3,58.76,54.62,59.46,40.18
		C60.14,25.97,50.28,13.9,37.08,11.17z M52.17,25.64c2.11,3.34,3.44,7.22,3.73,11.38h-6.82c-0.15-4.02-0.83-7.89-1.98-11.38H52.17z
		 M49.45,22.1h-3.73c-0.47-1.02-0.98-1.99-1.53-2.91c-0.51-0.84-1.04-1.62-1.6-2.34C45.18,18.18,47.5,19.97,49.45,22.1z
		 M45.54,37.02H33.16V25.64h10.16C44.57,29,45.37,32.89,45.54,37.02z M37.08,16.28c1.76,1.38,3.35,3.38,4.65,5.82h-8.57v-7.77
		C34.53,14.65,35.85,15.31,37.08,16.28z M29.25,9.26h4.3v1.41c-0.16-0.02-0.33-0.02-0.5-0.03c-0.32-0.02-0.63-0.03-0.95-0.03
		c-0.24,0-0.47-0.01-0.7-0.01s-0.46,0.01-0.7,0.01c-0.32,0.01-0.63,0.01-0.95,0.03c-0.17,0.01-0.34,0.02-0.5,0.03V9.26z
		 M16.45,54.87l-2.37,1.3c-0.02,0.01-0.04,0.02-0.06,0.04c-0.29,0.17-0.53,0.42-0.69,0.72l-1.26,2.32l-0.64,1.18l-1.9-3.49
		c-0.17-0.32-0.43-0.58-0.76-0.77l-3.48-1.91l1.96-1.08l1.52-0.83c0.18-0.1,0.35-0.23,0.49-0.39c0.11-0.11,0.2-0.24,0.27-0.38
		l0.14-0.26l0.29-0.53l1.47-2.71l1.76,3.23l0.14,0.25c0.18,0.33,0.44,0.59,0.77,0.77l2.17,1.19l1.3,0.72l-0.83,0.46L16.45,54.87z
		 M52.54,51.33c-0.74,1.26-1.59,2.44-2.53,3.54c-2.07,2.41-4.59,4.41-7.42,5.88c-2.86,1.47-6.05,2.4-9.42,2.64
		c-0.58,0.04-1.17,0.06-1.77,0.06s-1.18-0.02-1.77-0.06c-3.37-0.24-6.56-1.17-9.42-2.64c-1.17-0.61-2.28-1.3-3.33-2.08l1.43-0.78
		l3.09-1.7l0.45-0.25c0.43-0.24,0.74-0.62,0.89-1.07c0.07-0.19,0.1-0.4,0.1-0.61c0-0.7-0.38-1.35-0.99-1.68l-2.27-1.25l-0.47-0.26
		l-2.92-1.6l-1.97-3.6l-1.13-2.08c-0.33-0.61-0.98-1-1.67-1c-0.7,0-1.34,0.38-1.67,1l-1.61,2.95c-0.67-1.96-1.09-4.02-1.24-6.17
		c-0.04-0.59-0.06-1.18-0.06-1.77c0-0.59,0.02-1.19,0.06-1.77c0.29-4.16,1.62-8.04,3.73-11.38c0.8-1.26,1.7-2.45,2.71-3.54
		c1.95-2.13,4.28-3.91,6.86-5.25c1.73-0.89,3.58-1.58,5.51-2.04c1.27-0.3,2.58-0.51,3.91-0.6v7.9h-7.55c-0.67,0-1.28,0.38-1.57,0.99
		l-0.02,0.03c-0.56,1.17,0.28,2.52,1.57,2.52h7.56v11.38H18.98c-0.97,0-1.76,0.8-1.76,1.77v0l0,0.02c0,0.97,0.78,1.75,1.75,1.75
		h10.67v8.99c0,0.98,0.79,1.77,1.77,1.77h0c0.97,0,1.77-0.79,1.77-1.77v-8.99h12.39c-0.12,2.98-0.56,5.86-1.27,8.52
		c-0.3,1.13,0.53,2.24,1.7,2.24h0c0.8,0,1.5-0.53,1.71-1.31c0.8-2.97,1.27-6.16,1.4-9.45h6.82C55.62,44.47,54.43,48.13,52.54,51.33z
		"/>
	<path class="st0" d="M54.12,19.32c-0.66,0-1.26-0.36-1.58-0.94l-1.9-3.48l-3.46-1.9c-0.59-0.32-0.94-0.94-0.94-1.6
		c0-0.66,0.37-1.27,0.95-1.59l3.45-1.89l1.89-3.47c0.32-0.58,0.93-0.94,1.59-0.94s1.26,0.36,1.58,0.94l1.9,3.48l3.46,1.9
		c0.57,0.31,0.94,0.92,0.94,1.58c0,0.66-0.35,1.28-0.93,1.6l-3.47,1.9l-1.89,3.47C55.39,18.96,54.78,19.32,54.12,19.32z
		 M51.65,11.41l1.6,0.88l0.88,1.61L55,12.29l1.6-0.88L55,10.53l-0.88-1.61l-0.88,1.61L51.65,11.41z M59.36,12.93
		c0.01,0,0.01,0.01,0.02,0.01L59.36,12.93z M48.9,12.92l-0.02,0.01C48.89,12.93,48.89,12.93,48.9,12.92z"/>
</g>
</svg>
