<?xml version="1.0" encoding="utf-8"?>
<svg version="1.1" id="Слой_1" xmlns="http://www.w3.org/2000/svg" xmlns:xlink="http://www.w3.org/1999/xlink" x="0px" y="0px"
	 viewBox="0 0 62 67" style="enable-background:new 0 0 62 67;" xml:space="preserve">
<style type="text/css">
	.st0{fill:#D24F16;}
</style>
<g>
	<!-- Disco ball string -->
	<path class="st0" d="M31,5v7"/>
	<rect class="st0" x="30" y="3" width="2" height="10" rx="1"/>
	<!-- Ceiling mount -->
	<rect class="st0" x="25" y="1" width="12" height="3" rx="1.5"/>
	<!-- Disco ball body -->
	<circle class="st0" cx="31" cy="28" r="15" opacity="0.15"/>
	<path class="st0" d="M31,13c-8.28,0-15,6.72-15,15s6.72,15,15,15s15-6.72,15-15S39.28,13,31,13z M31,15.5
		c1.77,0,3.46,0.37,5,1.03v1.97h-10v-1.97C27.54,15.87,29.23,15.5,31,15.5z M21.62,21h4.88v4h-6.78
		C20.27,23.56,20.87,22.23,21.62,21z M19,25.5h0.5h7v5h-7.67C18.61,29.04,18.5,27.55,18.5,28C18.5,27.15,18.67,26.3,19,25.5z
		 M19.72,33h6.78v4h-4.88C20.87,35.77,20.27,34.44,19.72,33z M26,39.47V37.5h10v1.97c-1.54,0.66-3.23,1.03-5,1.03
		S27.54,40.13,26,39.47z M40.38,37h-4.88v-4h6.78C41.73,34.44,41.13,35.77,40.38,37z M43,32.5h-0.5h-7v-5h7.67
		c0.22,1.46,0.33,1.95,0.33,0.5C43.5,29.35,43.33,30.7,43,32.5z M42.28,25h-6.78v-4h4.88C41.13,22.23,41.73,23.56,42.28,25z
		 M29.5,21h3v4h-3V21z M29.5,27.5h3v5h-3V27.5z M29.5,35h3v4h-3V35z"/>
	<!-- Light rays -->
	<path class="st0" d="M11,47l6-4" stroke="#D24F16" stroke-width="2.5" stroke-linecap="round" fill="none"/>
	<path class="st0" d="M51,47l-6-4" stroke="#D24F16" stroke-width="2.5" stroke-linecap="round" fill="none"/>
	<path class="st0" d="M7,35l7-2" stroke="#D24F16" stroke-width="2.5" stroke-linecap="round" fill="none"/>
	<path class="st0" d="M55,35l-7-2" stroke="#D24F16" stroke-width="2.5" stroke-linecap="round" fill="none"/>
	<!-- Music notes -->
	<path class="st0" d="M12,55c0-1.66-1.34-3-3-3s-3,1.34-3,3s1.34,3,3,3c1.3,0,2.4-0.82,2.82-1.97L12,56.03V49l6-1.5v-3L12,46V55z"/>
	<path class="st0" d="M53,53c0-1.66-1.34-3-3-3s-3,1.34-3,3s1.34,3,3,3c1.3,0,2.4-0.82,2.82-1.97L53,54.03V47l5-1.25v-3L53,44V53z"/>
	<!-- Floor/base line -->
	<rect class="st0" x="10" y="63" width="42" height="2.5" rx="1.25"/>
</g>
</svg>
