<?xml version="1.0" encoding="utf-8"?>
<!-- Generator: Adobe Illustrator 27.2.0, SVG Export Plug-In . SVG Version: 6.00 Build 0)  -->
<svg version="1.1" id="Слой_1" xmlns="http://www.w3.org/2000/svg" xmlns:xlink="http://www.w3.org/1999/xlink" x="0px" y="0px"
	 viewBox="0 0 62 67" style="enable-background:new 0 0 62 67;" xml:space="preserve">
<style type="text/css">
	.st0{fill:#D24F16;}
</style>
<g>
	<path class="st0" d="M53.78,31.25c-0.02-0.93-0.35-1.79-0.93-2.39c-0.51-0.53-1.16-0.82-1.86-0.82H2.79
		c-0.69,0-1.35,0.29-1.86,0.82c-0.63,0.65-0.97,1.6-0.93,2.61c0.4,11.25,4.76,21.04,11.26,27.09c-0.69,0.88-1.11,2-1.11,3.21
		c0,2.88,2.35,5.23,5.23,5.23h23c2.88,0,5.23-2.35,5.23-5.23c0-1.27-0.45-2.43-1.2-3.33c0,0-0.01-0.01-0.01-0.01h0.02
		c0.26,0.02,0.53,0.03,0.82,0.03c3.36,0,7.91-1.99,11.87-5.18c4.37-3.52,6.88-7.6,6.88-11.19C62,36.63,58.89,32.69,53.78,31.25z
		 M38.39,63.47h-23c-0.94,0-1.7-0.76-1.7-1.71c0-0.36,0.11-0.7,0.31-0.98c0.31-0.44,0.82-0.73,1.4-0.73h23
		c0.53,0,0.99,0.24,1.3,0.61c0.25,0.29,0.4,0.68,0.4,1.09C40.09,62.71,39.33,63.47,38.39,63.47z M42.77,52.87
		c-0.47,0.59-0.96,1.16-1.47,1.69c-0.68,0.73-1.39,1.41-2.12,2.03c-0.26-0.04-0.53-0.06-0.8-0.06h-23c-0.35,0-0.7,0.04-1.03,0.1
		C8.19,51.35,3.96,42.2,3.54,31.58h46.71c-0.04,0.88-0.1,1.76-0.2,2.62C49.3,41.3,46.77,47.84,42.77,52.87z M46.01,54.44
		c4.08-5.38,6.69-12.21,7.51-19.58c2.53,0.89,4.95,2.88,4.95,7.22C58.47,46.68,51.49,52.71,46.01,54.44z"/>
	<path class="st0" d="M9.38,35.09H9.35c-1.07,0-1.9,0.95-1.73,2.01c0.9,5.65,2.82,10.79,5.49,15.07c0.32,0.52,0.89,0.84,1.5,0.84h0
		c1.38,0,2.21-1.51,1.48-2.69c-2.42-3.88-4.16-8.57-4.99-13.75C10.97,35.72,10.24,35.09,9.38,35.09z"/>
	<path class="st0" d="M25.6,26.29c-0.72,0.65-1.85,0.49-2.35-0.34v0L23,25.53c-0.37-0.62-0.26-1.41,0.27-1.89
		c0.67-0.62,1.37-1.53,1.43-2.5c0.08-1.45-1.34-2.85-2.55-3.77c-2.76-2.11-4.08-4.39-3.92-6.78c0.15-2.19,1.5-3.82,2.62-4.81
		c0.73-0.64,1.86-0.46,2.34,0.38l0.03,0.05l0.21,0.36c0.36,0.62,0.23,1.41-0.3,1.9c-0.65,0.59-1.33,1.44-1.39,2.36
		c-0.09,1.41,1.34,2.81,2.55,3.73c2.74,2.1,4.06,4.38,3.93,6.78C28.09,23.58,26.73,25.26,25.6,26.29z"/>
	<path class="st0" d="M30.56,0.72l0.13,0.23c0.39,0.68,0.28,1.55-0.29,2.09c-0.63,0.59-1.26,1.41-1.32,2.29
		C29,6.75,30.42,8.15,31.63,9.07c2.74,2.1,4.06,4.38,3.93,6.78c-0.12,2.14-1.37,3.77-2.47,4.8c-0.78,0.74-2.05,0.55-2.6-0.38
		l-0.07-0.13c-0.41-0.68-0.28-1.55,0.3-2.1c0.64-0.62,1.28-1.48,1.33-2.41c0.08-1.45-1.34-2.85-2.55-3.77
		c-2.76-2.11-4.08-4.39-3.92-6.78c0.14-2.06,1.35-3.63,2.43-4.63c0.8-0.75,2.09-0.56,2.64,0.39L30.56,0.72z"/>
</g>
</svg>
