<?xml version="1.0" encoding="utf-8"?>
<!-- Generator: Adobe Illustrator 27.2.0, SVG Export Plug-In . SVG Version: 6.00 Build 0)  -->
<svg version="1.1" id="Слой_1" xmlns="http://www.w3.org/2000/svg" xmlns:xlink="http://www.w3.org/1999/xlink" x="0px" y="0px"
	 viewBox="0 0 62 67" style="enable-background:new 0 0 62 67;" xml:space="preserve">
<style type="text/css">
	.st0{fill:#D24F16;}
</style>
<path class="st0" d="M35.83,19.57c-0.01,0-0.02,0-0.03,0c-0.06-0.01-0.13-0.02-0.19-0.02c0,0,0-0.01,0-0.01
	c0.55-3.59,3.33-6.55,6.33-7.68c0.69-0.26,1.12-0.93,1.12-1.65c0-0.1-0.01-0.21-0.03-0.31c-0.19-1.08-1.32-1.75-2.35-1.36
	c-4.29,1.62-8.14,5.86-8.66,11.07c0,0.03-0.01,0.06-0.01,0.08c-1.33,0.3-2.59,0.88-3.71,1.7l-1.2,0.88c0,0,0,0-0.01,0.01L0.02,42.3
	l0,0L0,42.3v21.61c0,1.82,1.56,3.24,3.37,3.07l55.79-5.1c1.59-0.15,2.81-1.48,2.81-3.07V38.05c0-0.06,0-0.12,0.01-0.17
	C62.83,25.73,46.32,20.7,35.83,19.57z M29.47,24.95C29.47,24.94,29.47,24.94,29.47,24.95l0.95-0.7c1.25-0.93,2.8-1.36,4.35-1.21
	c0.17,0.02,0.33,0.03,0.5,0.05h0c2.38,0.45,4.16,2.16,4.16,4.19c0,2.37-2.43,4.31-5.41,4.31s-5.42-1.93-5.42-4.31
	C28.61,26.42,28.93,25.62,29.47,24.95z M58.41,58.39L3.55,63.41v-4.42l54.86-5.02V58.39z M58.41,50.4L3.55,55.42v-1.76l54.86-5.02
	V50.4z M58.41,45.08L3.55,50.09v-4.55l54.86-5.02V45.08z M6.83,41.68l18.29-13.52c0.5,3.92,4.31,6.97,8.91,6.97
	c4.95,0,8.96-3.52,8.96-7.86c0-1.05-0.23-2.04-0.66-2.95c7.71,1.89,16.05,5.81,16.11,12.64L6.83,41.68z"/>
</svg>
