<?xml version="1.0" encoding="utf-8"?>
<!-- Generator: Adobe Illustrator 27.2.0, SVG Export Plug-In . SVG Version: 6.00 Build 0)  -->
<svg version="1.1" id="Слой_1" xmlns="http://www.w3.org/2000/svg" xmlns:xlink="http://www.w3.org/1999/xlink" x="0px" y="0px"
	 viewBox="0 0 100 100" style="enable-background:new 0 0 100 100;" xml:space="preserve">

<g>
	<circle fill="#D24F16" cx="50" cy="50" r="50"/>
	<g>
		<path fill="#FFFFFF" d="M74.72,63.31H11.49c-0.82,0-1.49-0.67-1.49-1.49V51.24c0-0.82,0.67-1.49,1.49-1.49h61.74
			c0.82,0,1.49,0.67,1.49,1.49V63.31z"/>
		<rect x="78.54" y="49.75" fill="#FFFFFF" width="3.82" height="13.56"/>
		<rect x="86.18" y="49.75" fill="#FFFFFF" width="3.82" height="13.56"/>
		<path fill="#FFFFFF" d="M81.8,47.3c-0.42,0.3-1.01,0.22-1.33-0.18c-0.93-1.16-2.07-2.2-2.65-2.23c-0.39-0.02-0.76,0.23-1.4,0.65
			c-0.87,0.59-2.07,1.4-3.92,1.4c-1.49,0-3.06-0.69-4.09-1.79c-0.8-0.86-1.2-1.89-1.13-2.91c0.13-1.91,0.73-2.87,1.21-3.64
			c0.36-0.57,0.57-0.91,0.57-1.58c0-0.4-1.16-1.13-2.09-1.73c-2.76-1.74-6.92-4.38-6.3-10.8c0.46-4.83,3.67-8.21,8.27-8.86
			c0.57-0.08,1.09,0.36,1.12,0.94l0,0.01c0.02,0.51-0.35,0.95-0.86,1.03c-2.93,0.46-6.12,2.51-6.56,7.08
			c-0.5,5.21,2.76,7.28,5.39,8.94c1.62,1.02,3.01,1.91,3.01,3.4c0,1.24-0.46,1.98-0.87,2.63c-0.42,0.67-0.82,1.31-0.92,2.73
			c-0.03,0.46,0.18,0.97,0.6,1.42c0.66,0.71,1.7,1.16,2.64,1.16c1.25,0,2.01-0.51,2.81-1.06c0.75-0.51,1.53-1.03,2.59-0.99
			c1.53,0.06,3.19,1.82,4.11,2.96C82.36,46.31,82.27,46.97,81.8,47.3L81.8,47.3z"/>
		<path fill="#FFFFFF" d="M86.41,45.11c-0.49,0.18-1.02-0.05-1.24-0.52c-1.25-2.66-3.61-4.8-6.01-5.38c-0.38-0.03-0.67-0.27-0.81-0.54
			l0,0c-0.22-0.43-0.1-0.95,0.29-1.24l0.37-0.28l0.16,0.04c0.9-0.44,4.68-2.64,3.98-7.83c-0.3-2.26-1.43-4.09-3.34-5.43
			c-2.36-1.66-5.37-2.15-7.51-1.93c-0.5,0.05-0.95-0.29-1.05-0.78v0c-0.13-0.58,0.28-1.14,0.88-1.2c2.59-0.25,6.04,0.33,8.83,2.28
			c2.35,1.65,3.78,4,4.16,6.79c0.62,4.63-1.63,7.48-3.53,8.94c2.24,1.15,4.21,3.23,5.38,5.75C87.22,44.29,86.95,44.91,86.41,45.11
			L86.41,45.11z"/>
	</g>
</g>
</svg>
