<?xml version="1.0" encoding="utf-8"?>
<!-- Generator: Adobe Illustrator 27.2.0, SVG Export Plug-In . SVG Version: 6.00 Build 0)  -->
<svg version="1.1" id="Слой_1" xmlns="http://www.w3.org/2000/svg" xmlns:xlink="http://www.w3.org/1999/xlink" x="0px" y="0px"
	 viewBox="0 0 62 67" style="enable-background:new 0 0 62 67;" xml:space="preserve">
<style type="text/css">
	.st0{fill:#D24F16;}
</style>
<g>
	<g>
		<path class="st0" d="M57.02,45.98c0.04-0.29,0.07-0.59,0.07-0.89c0-3.26-2.64-5.91-5.89-5.91c-0.58,0-1.14,0.08-1.67,0.24
			c-0.73-2.43-2.98-4.21-5.64-4.21c-1.62,0-3.09,0.66-4.15,1.73c-1.06-1.07-2.54-1.73-4.15-1.73c-2.66,0-4.91,1.78-5.64,4.21
			c-0.53-0.16-1.09-0.24-1.67-0.24c-3.25,0-5.89,2.65-5.89,5.91c0,0.3,0.02,0.6,0.07,0.89c-0.12,0.02-0.24,0.04-0.35,0.07
			c-1.05-0.99-2.46-1.59-4.01-1.59c-2.66,0-4.91,1.78-5.64,4.21c-0.53-0.16-1.09-0.24-1.67-0.24c-3.25,0-5.89,2.65-5.89,5.91
			c0,0.3,0.02,0.6,0.07,0.89c-3.76,0.59-6.34,4.76-4.19,8.93c1,1.94,3.14,3.02,5.31,2.82l0.03,0c0,0,0,0,0,0.01h32.26
			c0,0,0,0,0-0.01c0.08,0.01,0.16,0.01,0.24,0.01c3.25,0,5.89-2.65,5.89-5.91c0-1.23-0.38-2.38-1.02-3.33h12.38c0,0,0,0,0-0.01
			c0.08,0.01,0.16,0.01,0.24,0.01c3.25,0,5.89-2.65,5.89-5.91C62,48.87,59.84,46.42,57.02,45.98z M38.64,58.64
			c0.22,0,0.45,0.04,0.68,0.1c0.86,0.25,1.52,0.99,1.68,1.86c0.29,1.54-0.89,2.89-2.37,2.89H5.89c-1.44,0-2.59-1.27-2.4-2.75
			c0.14-1.05,0.97-1.92,2.01-2.08c0.16-0.02,0.32-0.04,0.47-0.03c0.81,0.03,1.57-0.45,1.99-1.15c0.09-0.14,0.17-0.28,0.26-0.43
			c0.37-0.58,0.49-1.3,0.27-1.96C8.39,54.76,8.35,54.39,8.4,54c0.14-1.02,0.93-1.86,1.94-2.05c0.53-0.1,1.04-0.02,1.48,0.19
			c0.64,0.3,1.4,0.28,2.03-0.04c0.19-0.09,0.39-0.2,0.58-0.3c0.69-0.35,1.17-1.02,1.27-1.79c0.02-0.14,0.05-0.29,0.09-0.44
			c0.16-0.56,0.54-1.04,1.06-1.31c0.69-0.36,1.39-0.39,1.98-0.2c0.62,0.2,1.13,0.64,1.42,1.22c0.23,0.45,0.69,0.75,1.2,0.75h1.6
			c0.51,0,0.97-0.29,1.2-0.74c0-0.01,0.01-0.02,0.02-0.03c0.27-0.52,0.72-0.92,1.26-1.14c0.43-0.17,0.91-0.22,1.42-0.11
			c1.08,0.24,1.88,1.25,1.88,2.37v0.02c0,0.49,0.3,0.93,0.73,1.16c0.34,0.17,0.73,0.37,1.1,0.55c0.64,0.33,1.39,0.34,2.04,0.04
			c0.44-0.2,0.94-0.28,1.46-0.19c1.01,0.18,1.81,1.02,1.95,2.04c0.01,0.09,0.02,0.18,0.02,0.26c0.01,0.3-0.04,0.59-0.13,0.86
			c-0.22,0.67-0.1,1.4,0.29,1.99c0.1,0.15,0.2,0.31,0.3,0.47c0.04,0.06,0.08,0.12,0.13,0.17C37.17,58.26,37.97,58.64,38.64,58.64z
			 M56.11,54.25H39.6c-0.04-2.83-2.08-5.19-4.76-5.72c1.54-0.61,3.2-0.95,4.94-0.95c3.05,0,5.88,1.04,8.22,2.81
			c0.3,0.23,0.67,0.37,1.04,0.37h0.07c1.66,0,2.4-2.13,1.08-3.14c-0.18-0.14-0.37-0.28-0.56-0.41c-2.83-2.01-6.21-3.17-9.85-3.17
			c-3.22,0-6.25,0.92-8.87,2.53c-1.08-1.29-2.7-2.11-4.5-2.11c-0.16,0-0.31,0.01-0.47,0.02c0.23-0.89,0.97-1.6,1.88-1.77
			c0.53-0.1,1.04-0.02,1.48,0.19c0.64,0.31,1.4,0.28,2.03-0.04c0.19-0.1,0.39-0.2,0.58-0.3c0.69-0.35,1.17-1.02,1.27-1.79
			c0.02-0.15,0.05-0.29,0.09-0.44c0.16-0.56,0.54-1.05,1.06-1.31c1.42-0.73,2.84-0.11,3.4,1.01c0.23,0.46,0.69,0.75,1.2,0.75h1.6
			c0.51,0,0.97-0.29,1.2-0.75c0.47-0.94,1.54-1.53,2.7-1.27c1.08,0.24,1.88,1.25,1.88,2.37v0.02c0,0.49,0.3,0.93,0.73,1.15
			c0.34,0.17,0.73,0.37,1.1,0.56c0.64,0.32,1.39,0.34,2.04,0.04c0.44-0.2,0.94-0.28,1.46-0.19c1.01,0.18,1.81,1.02,1.95,2.04
			c0.05,0.39,0.02,0.78-0.1,1.12c-0.22,0.67-0.1,1.4,0.29,1.99c0.1,0.15,0.2,0.3,0.3,0.47c0.39,0.62,1.3,1.07,2.04,1.07
			c0.22,0,0.45,0.03,0.68,0.1c0.86,0.25,1.52,0.99,1.68,1.86C58.77,52.9,57.6,54.25,56.11,54.25z"/>
		<path class="st0" d="M31.63,60h-0.07c-0.38,0-0.74-0.13-1.04-0.36c-2.33-1.77-5.16-2.81-8.22-2.81c-3.05,0-5.88,1.04-8.21,2.81
			c-0.3,0.23-0.67,0.36-1.04,0.36h-0.07c-1.66,0-2.4-2.12-1.08-3.14c0.18-0.14,0.37-0.28,0.56-0.41c2.83-2.01,6.22-3.17,9.85-3.17
			c3.64,0,7.03,1.17,9.85,3.17c0.19,0.13,0.38,0.27,0.56,0.41C34.03,57.88,33.29,60,31.63,60z"/>
	</g>
	<path class="st0" d="M29.71,26.44c-0.72,0.66-1.85,0.49-2.35-0.34l0,0l-0.25-0.42c-0.37-0.62-0.26-1.41,0.27-1.91
		c0.67-0.63,1.38-1.53,1.43-2.52c0.08-1.46-1.35-2.86-2.55-3.79c-2.77-2.12-4.09-4.42-3.93-6.82c0.15-2.2,1.5-3.84,2.63-4.84
		c0.73-0.65,1.86-0.46,2.34,0.39l0.03,0.05l0.21,0.36c0.36,0.63,0.24,1.42-0.3,1.91c-0.65,0.59-1.33,1.44-1.39,2.37
		c-0.09,1.42,1.34,2.82,2.55,3.75c2.75,2.11,4.07,4.4,3.93,6.82C32.2,23.71,30.84,25.41,29.71,26.44z"/>
	<path class="st0" d="M34.68,0.73l0.13,0.23c0.39,0.68,0.28,1.56-0.29,2.1c-0.63,0.59-1.27,1.41-1.32,2.31
		c-0.09,1.42,1.34,2.82,2.55,3.75c2.75,2.11,4.07,4.4,3.93,6.82c-0.12,2.15-1.37,3.79-2.47,4.83c-0.78,0.74-2.06,0.55-2.61-0.38
		l-0.07-0.13c-0.41-0.69-0.28-1.56,0.3-2.12c0.64-0.62,1.28-1.49,1.33-2.42c0.08-1.46-1.35-2.86-2.55-3.79
		c-2.77-2.12-4.09-4.42-3.93-6.82c0.14-2.07,1.35-3.65,2.43-4.66c0.81-0.75,2.09-0.57,2.64,0.39"/>
</g>
</svg>
