<?xml version="1.0" encoding="utf-8"?>
<!-- Generator: Adobe Illustrator 27.2.0, SVG Export Plug-In . SVG Version: 6.00 Build 0)  -->
<svg version="1.1" id="Слой_1" xmlns="http://www.w3.org/2000/svg" xmlns:xlink="http://www.w3.org/1999/xlink" x="0px" y="0px"
	 viewBox="0 0 100 100" style="enable-background:new 0 0 100 100;" xml:space="preserve">

<g>
	<circle fill="#D24F16" cx="50" cy="50" r="50"/>
	<g>
		<path fill="#FFFFFF" d="M72.12,28.71c-1.5-2.75-3.6-4.89-6.29-6.42c-2.7-1.53-5.86-2.29-9.49-2.29H34.1c-0.55,0-1,0.45-1,1v58
			c0,0.55,0.45,1,1,1h6.42c0.55,0,1-0.45,1-1V56.73h14.81c3.63,0,6.79-0.76,9.49-2.27c2.7-1.51,4.79-3.64,6.29-6.4
			c1.5-2.75,2.25-5.97,2.25-9.66C74.37,34.69,73.62,31.46,72.12,28.71z M63.24,45.87c-1.66,1.9-3.87,2.85-6.62,2.85h-15.1V28.01
			h15.1c2.75,0,4.96,0.95,6.62,2.85c1.66,1.9,2.5,4.42,2.5,7.55C65.74,41.49,64.91,43.98,63.24,45.87z"/>
	</g>
</g>
</svg>
