<?xml version="1.0" encoding="utf-8"?>
<!-- Generator: Adobe Illustrator 27.2.0, SVG Export Plug-In . SVG Version: 6.00 Build 0)  -->
<svg version="1.1" id="Слой_1" xmlns="http://www.w3.org/2000/svg" xmlns:xlink="http://www.w3.org/1999/xlink" x="0px" y="0px"
	 viewBox="0 0 62 67" style="enable-background:new 0 0 62 67;" xml:space="preserve">
<style type="text/css">
	.st0{fill:#D24F16;}
</style>
<path class="st0" d="M57.08,38.74c0-7.91-4.9-14.46-11.24-15.51v-1.14c3.33-1.49,5.56-4.99,5.14-8.95
	c-0.44-4.08-3.76-7.36-7.85-7.74c-1.84-0.17-3.57,0.23-5.05,1.04C35.48,2.53,31.37,0,26.76,0c-5.21,0-9.77,3.22-12.25,8.02
	c-0.58-0.17-1.18-0.26-1.8-0.28c-3.92-0.12-7.36,2.88-7.74,6.79c-0.36,3.66,1.91,6.87,5.15,7.93v36.51c-2.4,0.16-4.31,2.16-4.31,4.6
	C5.8,65.47,7.34,67,9.22,67h37.5c1.89,0,3.43-1.53,3.43-3.43c0-2.44-1.9-4.45-4.31-4.6v-4.72C52.19,53.2,57.08,46.64,57.08,38.74z
	 M53.51,38.74c0,5.89-3.31,10.8-7.67,11.87V26.87C50.21,27.93,53.51,32.85,53.51,38.74z M46.57,63.43H9.38
	c0.07-0.51,0.51-0.9,1.04-0.9h0c1.8,0,3.26-1.46,3.26-3.26V22.84h8.17v6.86c0,0.75,0.16,1.45,0.46,2.09
	c0.79,1.72,2.53,2.92,4.55,2.92c0.58,0,1.13-0.1,1.64-0.28c0.4,1.38,1.34,2.53,2.59,3.19c0.73,0.39,1.57,0.61,2.46,0.61
	c0.37,0,0.73-0.04,1.08-0.11c2.38-0.5,4.17-2.62,4.17-5.14V22.84h3.48v36.42c0,1.8,1.46,3.26,3.26,3.26h0
	C46.06,62.53,46.5,62.92,46.57,63.43z M42.15,19.27l-6.93,0c0,0.05,0.01,0.1,0.01,0.15l0,13.48c0,0.79-0.51,1.53-1.29,1.71
	c-1.01,0.23-1.93-0.46-2.06-1.39c-0.01-0.08-0.02-0.16-0.02-0.25V19.27h-3.57c0,0,0,0,0,0v10.39c0,0.62-0.37,1.21-0.97,1.4
	c-0.99,0.32-1.91-0.41-1.91-1.36V19.27l-12.83,0c-1.96,0-3.72-1.37-4.04-3.31c-0.41-2.49,1.51-4.66,3.93-4.66
	c0.25,0,0.48,0.02,0.72,0.07c1.45,0.26,2.63,1.31,3.07,2.69c0.23-1.55,0.69-3,1.35-4.3c1.86-3.7,5.27-6.19,9.15-6.19
	c3.52,0,6.65,2.05,8.6,5.21c0.85,1.39,1.48,2.99,1.8,4.72c0.19-1.67,1.18-3.1,2.58-3.89c0.75-0.43,1.63-0.68,2.56-0.68
	c3.05,0,5.5,2.66,5.14,5.78C47.13,17.34,44.8,19.27,42.15,19.27z"/>
</svg>
