<?xml version="1.0" encoding="utf-8"?>
<!-- Generator: Adobe Illustrator 27.2.0, SVG Export Plug-In . SVG Version: 6.00 Build 0)  -->
<svg version="1.1" id="Слой_1" xmlns="http://www.w3.org/2000/svg" xmlns:xlink="http://www.w3.org/1999/xlink" x="0px" y="0px"
	 viewBox="0 0 62 67" style="enable-background:new 0 0 62 67;" xml:space="preserve">
<style type="text/css">
	.st0{fill:#D24F16;}
</style>
<path class="st0" d="M61.42,42.44c-0.23-1.24-0.52-2.49-0.88-3.75v0l0.01-0.04h-0.02c-2.43,0.05-3.14-2.61-2.82-4.34l0,0
	c0.04-0.21,0.07-0.37,0.09-0.51l0.31-1.73c-0.36-0.8-0.75-1.6-1.15-2.39c-1-1.95-2.13-3.88-3.38-5.77c-2.24-0.14-2.92-1.3-3.9-2.77
	c-0.75-1.12-1.02-2.34-1-3.24l0.03-0.4v0c-0.02-0.02-0.04-0.04-0.06-0.07c-1.88-2.17-3.86-4.17-5.91-5.99v0c0,0,0,0,0,0c0,0,0,0,0,0
	c-0.45-0.02-0.9-0.03-1.34-0.04c-1.99-0.28-4.18-1.42-5.15-2.47c-1.06-1.15-1.65-2.48-1.49-3.38v0h0c-5.4-3.26-10.95-5.19-16.13-5.5
	C13.39-0.27,8.87,1.17,5.57,4.19C0.74,8.6-1.03,15.84,0.58,24.56c1.55,8.41,6.08,17.29,12.76,25.01
	c8.93,10.31,20.15,16.81,30.03,17.39c0.46,0.02,0.92,0.04,1.37,0.04c4.65,0,8.67-1.44,11.69-4.19
	C61.26,58.4,63.03,51.17,61.42,42.44z M54.23,35.67c0.01,0.15,0.02,0.31,0.03,0.47c0.11,1.11,0.52,1.9,0.97,2.47
	c-11.64,0.32-17.36,3.52-20.31,5.35l-0.45,0.28c-1.21,0.74-2.24,0.71-2.76-0.07c-0.42-0.62-0.53-1.91,0.83-2.88
	C35.25,39.34,42.68,36.17,54.23,35.67z M46.75,23.11c0.19,0.29,0.37,0.55,0.53,0.8c-10.74,0.46-18.14,3.33-22.34,5.91
	c-1.21,0.74-2.24,0.71-2.76-0.07c-0.42-0.62-0.54-1.91,0.83-2.88c2.54-1.82,10.41-5.17,22.75-5.58
	C46.02,21.89,46.35,22.51,46.75,23.11z M33.65,11.32c0.1,0.11,0.2,0.21,0.31,0.32c-9.26,0.83-15.57,3.59-19.44,5.95
	c-1.21,0.74-2.24,0.71-2.76-0.07c-0.42-0.62-0.54-1.91,0.83-2.88c2.36-1.69,7.12-5.1,19.52-5.47C32.51,9.91,33.03,10.64,33.65,11.32
	z M54.05,60.2c-2.58,2.37-6.21,3.48-10.47,3.23c-8.82-0.51-19.38-6.71-27.57-16.18C9.74,40.01,5.49,31.72,4.05,23.92
	c-1.38-7.48,0-13.57,3.89-17.12c2.35-2.15,5.55-3.27,9.32-3.27c0.38,0,0.76,0.01,1.16,0.04c2.94,0.17,6.07,0.98,9.25,2.33
	c-8.92,0.85-13.66,3.38-17.13,5.87c-3,2.15-3.13,5.57-1.71,7.7c0.83,1.25,2.31,2.19,4.13,2.19c1.05,0,2.21-0.31,3.42-1.06
	c3.65-2.23,11.72-5.86,25.19-5.44c0.91,0.84,1.8,1.72,2.66,2.64c-12.35,0.65-20.33,4.08-23.28,6.19c-3,2.15-3.12,5.57-1.71,7.7
	c0.83,1.25,2.31,2.19,4.13,2.19c1.05,0,2.21-0.31,3.42-1.06c3.62-2.22,11.58-5.8,24.83-5.45c0.97,1.57,1.85,3.16,2.63,4.76
	c-11.68,0.49-20.01,3.59-23.76,6.28c-3,2.15-3.13,5.57-1.71,7.7c0.83,1.25,2.31,2.19,4.13,2.19c1.05,0,2.21-0.31,3.42-1.06
	l0.47-0.29c2.9-1.8,8.19-5.08,20.97-4.84c0.07,0.32,0.13,0.64,0.19,0.96C59.33,50.56,57.95,56.65,54.05,60.2z"/>
</svg>
