<?xml version="1.0" encoding="utf-8"?>
<!-- Generator: Adobe Illustrator 27.2.0, SVG Export Plug-In . SVG Version: 6.00 Build 0)  -->
<svg version="1.1" id="Слой_1" xmlns="http://www.w3.org/2000/svg" xmlns:xlink="http://www.w3.org/1999/xlink" x="0px" y="0px"
	 viewBox="0 0 62 67" style="enable-background:new 0 0 62 67;" xml:space="preserve">
<style type="text/css">
	.st0{fill:#D24F16;}
</style>
<g>
	<path class="st0" d="M60.92,29.89c-0.01-0.02-0.02-0.05-0.04-0.07c-8.43-13.9-21.61-24.43-37.01-29.6
		c-0.02-0.01-0.05-0.02-0.08-0.02c-1.22-0.36-2.55-0.23-3.68,0.35c-1.1,0.56-1.96,1.52-2.39,2.67L17.51,3.9
		c-0.33,1.33-0.08,2.7,0.6,3.81L17.75,8.9l-1.71,5.58l-0.14,0.46L4.01,53.56L0.74,64.18l-0.02,0l-0.19,0.62
		c-0.38,1.23,0.67,2.31,1.8,2.18c0.22-0.02,0.44-0.09,0.65-0.21l0.56-0.32l12.08-6.92l32.23-18.45l1.52-0.87l4.37-2.5c0,0,0,0,0,0
		l1.06-0.61c0.52,0.18,1.06,0.27,1.61,0.27c0.76,0,1.54-0.17,2.26-0.55l0.56-0.32c0,0,0,0,0,0c1.04-0.68,1.81-1.74,2.12-2.95
		C61.7,32.32,61.53,31,60.92,29.89z M47.72,37.29l-1.52,0.87L5.01,61.73l14.24-46.27l1.71-5.55l0-0.01c0,0,0.01,0,0.01,0
		c12.91,4.4,23.97,13.24,31.1,24.88c0,0,0,0,0,0l-0.01,0L47.72,37.29z M57.35,33.72l-0.09,0.05c-0.77,0.44-1.74,0.19-2.2-0.56
		C47.5,20.78,35.73,11.36,21.96,6.69c-0.04-0.02-0.08-0.03-0.12-0.04c-0.54-0.18-0.93-0.63-1.06-1.16
		c-0.07-0.27-0.06-0.57,0.03-0.86l0.03-0.1c0.27-0.88,1.22-1.36,2.08-1.06c14.56,4.91,27.01,14.86,35.01,27.99
		C58.41,32.24,58.14,33.26,57.35,33.72z"/>
	<path class="st0" d="M26.93,40.31c0.38,3.23-1.94,6.16-5.16,6.54s-6.16-1.94-6.54-5.16c-0.38-3.23,1.94-6.16,5.16-6.54
		S26.55,37.09,26.93,40.31z M18.57,41.29c0.16,1.38,1.42,2.37,2.8,2.21c1.38-0.16,2.37-1.42,2.21-2.8c-0.16-1.38-1.42-2.37-2.8-2.21
		S18.41,39.91,18.57,41.29z"/>
	<path class="st0" d="M44.05,31.43c0.38,3.23-1.94,6.16-5.16,6.54c-3.23,0.38-6.16-1.94-6.54-5.16c-0.38-3.23,1.94-6.16,5.16-6.54
		C40.74,25.89,43.67,28.21,44.05,31.43z M35.69,32.42c0.16,1.38,1.42,2.37,2.8,2.21c1.38-0.16,2.37-1.42,2.21-2.8
		c-0.16-1.38-1.42-2.37-2.8-2.21C36.52,29.78,35.53,31.03,35.69,32.42z"/>
	<path class="st0" d="M31.93,21.68c0.38,3.23-1.94,6.16-5.16,6.54s-6.16-1.94-6.54-5.16s1.94-6.16,5.16-6.54
		C28.61,16.14,31.55,18.45,31.93,21.68z M23.57,22.66c0.16,1.38,1.42,2.37,2.8,2.21c1.38-0.16,2.37-1.42,2.21-2.8
		c-0.16-1.38-1.42-2.37-2.8-2.21C24.4,20.02,23.41,21.28,23.57,22.66z"/>
	<path class="st0" d="M16.55,49.18c0-0.01,0-0.03,0-0.04c0,0.15,0,0.3-0.01,0.45c0-0.12,0.02-0.23,0.05-0.35
		c-0.04,0.14-0.08,0.28-0.12,0.42c0.03-0.11,0.08-0.22,0.14-0.32c0.1-0.21,0.14-0.42,0.13-0.64c0.02-0.23-0.01-0.45-0.11-0.66
		c-0.15-0.38-0.5-0.76-0.89-0.91c-0.41-0.16-0.89-0.21-1.31-0.02c-0.13,0.07-0.25,0.14-0.38,0.22c-0.23,0.18-0.41,0.4-0.53,0.67
		c-0.29,0.48-0.33,1.04-0.32,1.58c0.02,0.23,0.09,0.44,0.22,0.63c0.09,0.2,0.23,0.36,0.41,0.5c0.32,0.26,0.83,0.42,1.24,0.35
		c0.43-0.07,0.86-0.26,1.12-0.63c0.07-0.12,0.15-0.25,0.22-0.37C16.54,49.78,16.58,49.49,16.55,49.18L16.55,49.18z"/>
	<path class="st0" d="M32.3,38.36c0-0.5,0-1-0.01-1.51c0-0.4-0.33-0.89-0.63-1.12c-0.32-0.26-0.83-0.42-1.24-0.35
		c-0.43,0.07-0.86,0.26-1.12,0.63c-0.28,0.38-0.35,0.77-0.35,1.24c0,0.5,0,1,0.01,1.51c0,0.4,0.33,0.89,0.63,1.12
		c0.32,0.26,0.83,0.42,1.24,0.35c0.43-0.07,0.86-0.26,1.12-0.63C32.22,39.21,32.3,38.83,32.3,38.36L32.3,38.36z"/>
	<path class="st0" d="M23.64,29.66c-0.8,0-1.67-0.14-2.44-0.38c-0.87-0.27-1.83-0.03-2.22,0.87c-0.33,0.76,0,1.94,0.87,2.22
		c1.39,0.44,2.73,0.64,4.19,0.64c0.91,0,1.57-1.04,1.47-1.87C25.39,30.15,24.56,29.67,23.64,29.66L23.64,29.66z"/>
	<path class="st0" d="M36.9,20.99c-0.08,0.01-0.15,0.03-0.23,0.04c-0.15,0.02-0.31,0.05-0.46,0.07c-0.31,0.04-0.62,0.07-0.93,0.1
		c-0.88,0.08-1.62,0.99-1.47,1.87c0.15,0.92,0.93,1.56,1.87,1.47c0.52-0.04,1.03-0.11,1.54-0.19c0.87-0.15,1.86-0.58,1.92-1.62
		c0.05-0.88-0.45-1.82-1.41-1.92L36.9,20.99z"/>
</g>
</svg>
