<?xml version="1.0" encoding="utf-8"?>
<!-- Generator: Adobe Illustrator 27.2.0, SVG Export Plug-In . SVG Version: 6.00 Build 0)  -->
<svg version="1.1" id="Слой_1" xmlns="http://www.w3.org/2000/svg" xmlns:xlink="http://www.w3.org/1999/xlink" x="0px" y="0px"
	 viewBox="0 0 62 67" style="enable-background:new 0 0 62 67;" xml:space="preserve">
<style type="text/css">
	.st0{fill:#D24F16;}
</style>
<g>
	<path class="st0" d="M36.31,33.85v-1.56c0-2.87-2.38-5.2-5.3-5.2s-5.3,2.33-5.3,5.2v1.61c-13.04,2.25-22.9,12.36-22.9,24.46v1.75
		h56.4v-1.75C59.22,46.17,49.33,35.99,36.31,33.85z M29.29,32.29c0-0.93,0.77-1.69,1.73-1.69c0.95,0,1.73,0.76,1.73,1.69v1.18
		c-0.51-0.03-1.03-0.04-1.55-0.04c-0.64,0-1.28,0.02-1.91,0.06V32.29z M6.47,56.61c0.89-9.4,8.84-17.11,19.25-19.14
		c1.16-0.23,2.35-0.39,3.57-0.46c0.63-0.05,1.26-0.07,1.91-0.07c0.52,0,1.04,0.02,1.55,0.04c1.21,0.07,2.41,0.21,3.57,0.43
		c10.4,1.95,18.37,9.71,19.25,19.2H6.47z"/>
	<path class="st0" d="M49.73,26.11c-0.73,0.65-1.87,0.49-2.38-0.34l0,0l-0.25-0.42c-0.37-0.61-0.26-1.4,0.27-1.88
		c0.68-0.62,1.39-1.52,1.44-2.49c0.08-1.44-1.36-2.83-2.58-3.74c-2.8-2.1-4.14-4.36-3.97-6.73c0.15-2.17,1.52-3.79,2.66-4.78
		c0.74-0.64,1.88-0.45,2.37,0.38l0.03,0.05l0.21,0.36c0.37,0.62,0.24,1.4-0.3,1.88c-0.66,0.59-1.35,1.43-1.4,2.34
		c-0.09,1.4,1.35,2.79,2.58,3.71c2.78,2.08,4.12,4.35,3.98,6.74C52.25,23.42,50.87,25.1,49.73,26.11z"/>
	<path class="st0" d="M54.75,0.72l0.14,0.23c0.4,0.68,0.29,1.54-0.3,2.08c-0.64,0.58-1.28,1.4-1.34,2.28
		c-0.09,1.4,1.35,2.79,2.58,3.71c2.78,2.08,4.12,4.35,3.98,6.74c-0.12,2.12-1.39,3.75-2.5,4.77c-0.79,0.73-2.08,0.54-2.64-0.38
		l-0.08-0.12c-0.41-0.68-0.28-1.54,0.3-2.09c0.64-0.61,1.3-1.47,1.35-2.39c0.08-1.44-1.36-2.83-2.58-3.74
		c-2.8-2.1-4.14-4.36-3.97-6.73c0.14-2.05,1.37-3.61,2.46-4.6c0.82-0.74,2.12-0.56,2.67,0.39"/>
	<path class="st0" d="M60.22,67H1.78C0.8,67,0,66.22,0,65.25v0c0-0.97,0.8-1.75,1.79-1.75h58.43c0.99,0,1.79,0.78,1.79,1.75v0
		C62,66.22,61.2,67,60.22,67z"/>
	<path class="st0" d="M12.81,53.63L12.81,53.63c-0.97-0.4-1.37-1.54-0.88-2.45c1.72-3.16,4.25-5.85,7.53-8.02
		c0.86-0.57,2.04-0.32,2.56,0.56l0,0c0.47,0.79,0.24,1.81-0.53,2.32c-2.82,1.86-4.97,4.14-6.42,6.8
		C14.64,53.65,13.66,53.98,12.81,53.63z"/>
</g>
</svg>
