<?xml version="1.0" encoding="utf-8"?>
<!-- Generator: Adobe Illustrator 27.2.0, SVG Export Plug-In . SVG Version: 6.00 Build 0)  -->
<svg version="1.1" id="Слой_1" xmlns="http://www.w3.org/2000/svg" xmlns:xlink="http://www.w3.org/1999/xlink" x="0px" y="0px"
	 viewBox="0 0 62 67" style="enable-background:new 0 0 62 67;" xml:space="preserve">
<style type="text/css">
	.st0{fill:#D24F16;}
</style>
<g>
	<path class="st0" d="M61.63,7.96c0-0.01,0-0.02-0.01-0.03C60.61,3.4,56.54,0,51.7,0c-5.37,0-9.78,4.18-10.15,9.46
		c-0.04,0.5-0.12,1-0.22,1.49l-5.95,29.28l-1.31,6.42H0.21c-0.05,0.58-0.08,1.17-0.08,1.77s0.03,1.19,0.08,1.77
		C1.1,59.61,9.06,67,18.71,67c1.21,0,2.39-0.12,3.54-0.34c0.09-0.02,0.17-0.04,0.26-0.05c3.05-0.64,5.83-2.02,8.13-3.95
		c3.64-3.06,6.1-7.48,6.57-12.47l0.48-3.54l6.12-30.08l1.07-5.4c0.09-0.48,0.18-0.96,0.21-1.45c0.22-3.27,2.82-5.9,6.08-6.16
		c-2.18,1.23-3.66,3.58-3.66,6.26c0,3.28,2.21,6.06,5.22,6.92h0c0.62,0.18,1.28,0.27,1.97,0.27c3.91,0,7.09-3.13,7.19-7.01
		C61.87,9.3,61.78,8.62,61.63,7.96z M22.24,63.04c-1.09,0.25-2.37,0.42-3.54,0.42c-1.7,0-3.33-0.28-4.85-0.81
		c-5.39-1.84-9.4-6.65-10.09-12.47h3.52c0.63,4.38,3.16,8.15,6.71,10.47c0.15,0.1,0.33,0.15,0.51,0.16
		c0.88,0.02,1.35-1.05,0.72-1.67c-2.38-2.34-3.99-5.47-4.4-8.95h22.81C32.91,56.47,28.28,61.59,22.24,63.04z M58.34,10L58.34,10
		c-0.1,1.99-1.79,3.56-3.81,3.47c-1.88-0.08-3.43-1.66-3.49-3.54c-0.06-2.07,1.6-3.77,3.65-3.77c1.67,0,3.09,1.13,3.52,2.67
		c0,0,0,0,0,0.01c0.09,0.31,0.13,0.64,0.13,0.97C58.34,9.88,58.34,9.94,58.34,10z"/>
	<path class="st0" d="M13.48,30.88c1.21,0.92,2.63,2.32,2.55,3.77c-0.05,0.98-0.76,1.88-1.43,2.51c-0.53,0.49-0.64,1.28-0.27,1.9
		l0.25,0.42c0.5,0.83,1.63,1,2.35,0.34c1.13-1.03,2.5-2.72,2.62-4.96c0.14-2.41-1.19-4.7-3.94-6.8c-1.21-0.93-2.64-2.33-2.55-3.74
		c0.06-0.92,0.74-1.77,1.39-2.36c0.54-0.49,0.66-1.28,0.3-1.9l-0.21-0.36l-0.03-0.05c-0.48-0.84-1.62-1.03-2.35-0.39
		c-1.13,0.99-2.48,2.63-2.63,4.82C9.39,26.48,10.71,28.76,13.48,30.88z"/>
	<path class="st0" d="M20.84,25.38c1.21,0.92,2.63,2.32,2.55,3.77c-0.05,0.93-0.69,1.8-1.33,2.41c-0.57,0.56-0.71,1.42-0.3,2.11
		l0.07,0.13c0.55,0.93,1.83,1.12,2.61,0.38c1.1-1.04,2.35-2.67,2.47-4.82c0.14-2.41-1.19-4.7-3.94-6.8
		c-1.21-0.93-2.64-2.33-2.55-3.74c0.05-0.89,0.69-1.71,1.32-2.3c0.58-0.54,0.69-1.41,0.29-2.09l-0.13-0.23l0.07,0.13
		c-0.55-0.96-1.84-1.14-2.64-0.39c-1.08,1.01-2.3,2.58-2.44,4.64C16.74,20.98,18.07,23.26,20.84,25.38z"/>
</g>
</svg>
