<?xml version="1.0" encoding="utf-8"?>
<!-- Generator: Adobe Illustrator 27.2.0, SVG Export Plug-In . SVG Version: 6.00 Build 0)  -->
<svg version="1.1" id="Слой_1" xmlns="http://www.w3.org/2000/svg" xmlns:xlink="http://www.w3.org/1999/xlink" x="0px" y="0px"
	 viewBox="0 0 100 100" style="enable-background:new 0 0 100 100;" xml:space="preserve">

<circle fill="#D24F16" cx="50" cy="50" r="50"/>
<g>
	<path fill="#FFFFFF" d="M43.28,15.71c-0.02,0.03-0.05,0.06-0.07,0.09c-0.2,0.24-0.4,0.49-0.6,0.74c-0.42,0.55-0.82,1.15-1.22,1.78
		c-0.16,0.26-0.32,0.53-0.47,0.81c-0.08,0.14-0.16,0.28-0.23,0.43c-0.1,0.18-0.2,0.37-0.29,0.55c-0.09,0.16-0.17,0.33-0.25,0.51
		c-0.09,0.17-0.17,0.35-0.25,0.52c-0.08,0.18-0.16,0.36-0.24,0.54c-0.08,0.18-0.16,0.37-0.24,0.55c-0.08,0.19-0.16,0.37-0.23,0.56
		c-0.33,0.8-0.63,1.63-0.91,2.5c-0.06,0.17-0.12,0.35-0.17,0.52c-0.09,0.27-0.17,0.54-0.25,0.81c-0.12,0.38-0.23,0.76-0.33,1.15
		c-0.4,1.44-0.75,2.97-1.06,4.56c-0.05,0.23-0.09,0.47-0.13,0.7c-0.01,0.05-0.02,0.09-0.02,0.14c-0.05,0.27-0.09,0.55-0.14,0.83
		c-0.05,0.33-0.11,0.67-0.16,1c-0.05,0.31-0.09,0.63-0.14,0.94c-0.05,0.32-0.09,0.65-0.13,0.97c-0.08,0.63-0.15,1.26-0.21,1.91
		c-0.04,0.36-0.07,0.73-0.1,1.1c-0.07-0.06-0.13-0.11-0.2-0.16c-0.02-0.02-0.04-0.03-0.05-0.05c-0.04-0.03-0.07-0.06-0.11-0.09
		c-0.05-0.04-0.09-0.07-0.14-0.11l-0.01-0.01c-0.02-0.02-0.05-0.03-0.07-0.05c-0.25-0.19-0.51-0.37-0.79-0.54
		c-0.05-0.03-0.09-0.06-0.14-0.08c0,0-0.01-0.01-0.02-0.01c-0.07-0.05-0.14-0.09-0.21-0.12c-0.04-0.02-0.08-0.05-0.12-0.07
		c-0.14-0.08-0.28-0.16-0.42-0.23c-0.2-0.11-0.4-0.21-0.61-0.3c-0.04-0.02-0.07-0.03-0.11-0.05c-0.12-0.06-0.23-0.11-0.35-0.16
		c-0.01-0.01-0.02-0.01-0.03-0.02c-0.06-0.02-0.12-0.05-0.17-0.07c-0.09-0.04-0.19-0.08-0.28-0.12c-0.04-0.02-0.08-0.04-0.12-0.05
		c-0.1-0.04-0.2-0.08-0.3-0.12c-0.02-0.01-0.05-0.02-0.07-0.02c-0.06-0.02-0.12-0.05-0.19-0.07c-0.04-0.02-0.08-0.03-0.12-0.04
		c-0.02-0.01-0.05-0.02-0.07-0.02c-0.15-0.05-0.3-0.1-0.45-0.14c-0.01-0.01-0.02-0.01-0.04-0.01c-0.01,0-0.02-0.01-0.03-0.01
		c-0.13-0.04-0.26-0.08-0.39-0.12c-0.05-0.02-0.11-0.03-0.16-0.05c-0.02-0.01-0.04-0.01-0.06-0.02c-0.07-0.02-0.13-0.04-0.19-0.05
		c-0.02,0-0.04-0.01-0.05-0.01c-0.12-0.03-0.24-0.06-0.36-0.09c-0.02-0.01-0.04-0.01-0.06-0.02c-0.02,0-0.04-0.01-0.06-0.01
		c-0.09-0.02-0.19-0.05-0.28-0.07c-0.07-0.02-0.13-0.03-0.2-0.05c-0.04-0.01-0.08-0.02-0.13-0.03c-0.04-0.01-0.07-0.01-0.11-0.02
		c0,0,0,0-0.01,0c-0.01,0-0.02-0.01-0.04-0.01c-0.17-0.04-0.35-0.07-0.53-0.1c0,0,0,0-0.01,0c-0.2-0.04-0.41-0.07-0.61-0.1
		c-0.03-0.01-0.07-0.01-0.1-0.02c-0.01,0-0.01,0-0.02,0c-0.23-0.03-0.47-0.06-0.71-0.09c-0.1-0.01-0.2-0.02-0.3-0.03
		c-0.18-0.02-0.35-0.04-0.54-0.05c-0.15-0.01-0.3-0.02-0.46-0.04c-0.07,0-0.13,0-0.2-0.01c-0.14-0.01-0.28-0.02-0.43-0.02
		c-0.11-0.01-0.23-0.01-0.34-0.01c-0.02,0-0.03,0-0.05,0c-0.24-0.01-0.49-0.01-0.73-0.01c-0.35,0-0.7,0.01-1.05,0.02
		c-0.25,0-0.5,0.02-0.74,0.04c-0.02,0-0.03,0-0.05,0c-0.17,0.01-0.33,0.02-0.5,0.03c-0.12,0.01-0.24,0.02-0.36,0.04
		c-0.19,0.02-0.38,0.04-0.57,0.07c-0.05,0-0.11,0.01-0.16,0.02c-0.05,0-0.09,0.01-0.14,0.02C23.31,25.83,32.43,18.02,43.28,15.71z"
		/>
	<path fill="#FFFFFF" d="M80.52,36.42c-1.14-0.16-2.33-0.24-3.57-0.24c-5.2,0-9.7,1.47-12.36,3.74c-0.01-0.19-0.03-0.37-0.05-0.55
		c-0.03-0.34-0.07-0.68-0.1-1.02c-0.05-0.43-0.09-0.85-0.15-1.27c-0.04-0.35-0.09-0.7-0.14-1.05c-0.05-0.35-0.09-0.69-0.15-1.03
		c0-0.01,0-0.03-0.01-0.05c-0.05-0.36-0.11-0.71-0.17-1.06c-0.05-0.31-0.1-0.61-0.16-0.92c-0.01-0.08-0.03-0.17-0.05-0.25
		c-0.06-0.3-0.11-0.6-0.17-0.89c-0.21-1.03-0.43-2.03-0.68-2.99c-0.05-0.22-0.11-0.43-0.17-0.65c-0.04-0.14-0.07-0.28-0.11-0.42
		c-0.07-0.25-0.14-0.5-0.21-0.75c-0.09-0.3-0.18-0.6-0.27-0.9c-0.05-0.17-0.11-0.34-0.16-0.5c-0.05-0.15-0.09-0.29-0.14-0.44
		c-0.1-0.29-0.2-0.58-0.3-0.86c-0.19-0.53-0.38-1.04-0.58-1.53c-0.39-0.96-0.8-1.87-1.24-2.71c-0.07-0.14-0.14-0.28-0.21-0.41
		c-0.22-0.42-0.45-0.82-0.68-1.21c-0.12-0.2-0.23-0.39-0.36-0.58c-0.12-0.19-0.24-0.37-0.36-0.55c-0.16-0.23-0.33-0.46-0.49-0.68
		c-0.23-0.3-0.46-0.59-0.7-0.87c-0.02-0.03-0.05-0.06-0.07-0.09C67.57,18.02,76.69,25.83,80.52,36.42z"/>
	<path fill="#FFFFFF" d="M61.63,39.33c-0.2-0.15-0.41-0.29-0.64-0.43c-0.03-0.02-0.06-0.04-0.1-0.06c0,0,0,0-0.01-0.01
		c-0.12-0.07-0.24-0.15-0.37-0.22c-0.79-0.45-1.66-0.84-2.61-1.17l-0.54-0.18c-0.09-0.03-0.18-0.06-0.27-0.08
		c-0.27-0.09-0.55-0.16-0.83-0.24c-0.65-0.16-1.31-0.31-2.01-0.42c-0.16-0.02-0.32-0.05-0.48-0.07c-0.21-0.03-0.42-0.06-0.63-0.08
		c-0.14-0.02-0.27-0.04-0.41-0.05c-0.56-0.06-1.12-0.1-1.7-0.11v43.64c0,0.57,0.46,1.03,1.03,1.03h5.35c0.56,0,1.03,0.47,1.03,1.03
		v2.06c0,0.57-0.47,1.03-1.03,1.03H42.6c-0.57,0-1.03-0.46-1.03-1.03v-2.06c0-0.56,0.46-1.03,1.03-1.03h5.34
		c0.57,0,1.03-0.46,1.03-1.03V36.2c-0.19,0.01-0.38,0.02-0.57,0.03c-0.05,0-0.1,0-0.15,0.01h-0.07c-0.03,0-0.05,0-0.08,0.01h-0.04
		c-0.09,0.01-0.18,0.02-0.27,0.02c-0.11,0.01-0.22,0.02-0.33,0.03c-0.02,0-0.04,0.01-0.07,0.01c-0.07,0-0.15,0.01-0.23,0.02
		c-0.18,0.02-0.36,0.04-0.55,0.07c-0.2,0.02-0.41,0.05-0.62,0.08c-0.08,0.02-0.16,0.03-0.24,0.04c-0.15,0.03-0.29,0.05-0.44,0.08
		c-0.09,0.01-0.18,0.03-0.27,0.05c-0.62,0.12-1.21,0.26-1.79,0.43c-0.02,0-0.04,0.01-0.07,0.02c-0.03,0-0.05,0.01-0.07,0.02
		c-0.11,0.03-0.23,0.06-0.34,0.1c-0.04,0.01-0.08,0.02-0.13,0.04c-0.1,0.03-0.2,0.06-0.3,0.09l-0.23,0.09
		c-0.12,0.04-0.23,0.08-0.34,0.12c-0.08,0.03-0.15,0.06-0.22,0.09c-0.19,0.07-0.38,0.14-0.56,0.22c-0.12,0.06-0.24,0.11-0.36,0.16
		c-0.03,0.02-0.07,0.04-0.11,0.05c-0.25,0.12-0.5,0.24-0.73,0.37c-0.06,0.03-0.12,0.06-0.17,0.09c-0.02,0.01-0.03,0.02-0.04,0.03
		c-0.03,0.01-0.06,0.03-0.09,0.04c0,0,0,0.01-0.01,0.01c-0.2,0.11-0.4,0.23-0.58,0.35c-0.05,0.03-0.1,0.06-0.14,0.09
		c-0.02,0.02-0.05,0.03-0.07,0.04c0,0,0,0,0,0.01c-0.01,0-0.01,0-0.02,0.01c-0.03,0.01-0.05,0.03-0.08,0.05
		c-0.02,0.01-0.04,0.03-0.06,0.04v0.01c-0.02,0-0.03,0.02-0.05,0.03c-0.03,0.02-0.07,0.04-0.1,0.07c0,0,0,0-0.01,0
		c0.03-0.29,0.06-0.58,0.09-0.87c0.04-0.29,0.07-0.57,0.11-0.86c0.07-0.59,0.15-1.17,0.24-1.74c0.08-0.57,0.17-1.14,0.27-1.7
		c0.04-0.22,0.08-0.45,0.12-0.67c0.08-0.44,0.17-0.87,0.26-1.3s0.18-0.86,0.28-1.27c0.09-0.41,0.18-0.81,0.28-1.2
		c0.06-0.22,0.11-0.44,0.17-0.65c0.09-0.33,0.17-0.65,0.26-0.96c0.14-0.47,0.28-0.92,0.42-1.37c0.05-0.19,0.11-0.37,0.18-0.55
		c0.01-0.04,0.02-0.08,0.03-0.12c0.11-0.33,0.23-0.65,0.34-0.97c0.2-0.54,0.39-1.06,0.6-1.56c0.06-0.15,0.13-0.31,0.2-0.46
		c0.07-0.16,0.14-0.32,0.21-0.48c0.07-0.16,0.14-0.31,0.21-0.46c0.07-0.16,0.14-0.31,0.22-0.46c0.07-0.14,0.14-0.29,0.21-0.44
		c1.27-2.48,2.71-4.32,4.23-5.33c0.16-0.1,0.31-0.2,0.47-0.28c0.02-0.02,0.06-0.04,0.09-0.05c0.07-0.04,0.14-0.08,0.21-0.11
		c0.09-0.04,0.18-0.08,0.27-0.12c0.11-0.04,0.22-0.08,0.33-0.12c0.06-0.02,0.13-0.04,0.2-0.06c0.19-0.05,0.39-0.09,0.59-0.12
		c0.05-0.01,0.11-0.01,0.16-0.02c0.04,0,0.09,0,0.13-0.01c0.08,0,0.17-0.01,0.25-0.01C55.37,15,60.24,25.54,61.63,39.33z"/>
</g>
</svg>
