<?xml version="1.0" encoding="utf-8"?>
<!-- Generator: Adobe Illustrator 27.2.0, SVG Export Plug-In . SVG Version: 6.00 Build 0)  -->
<svg version="1.1" id="Слой_1" xmlns="http://www.w3.org/2000/svg" xmlns:xlink="http://www.w3.org/1999/xlink" x="0px" y="0px"
	 viewBox="0 0 62 67" style="enable-background:new 0 0 62 67;" xml:space="preserve">
<style type="text/css">
	.st0{fill:#D24F16;}
</style>
<path class="st0" d="M53.09,23.47c-0.38-0.16-0.79-0.22-1.2-0.22l-1.46,0l0.68-4.81c0-0.01,0-0.01,0-0.02l0.74-5.26
	c0-0.01,0-0.01,0-0.02l0.37-2.64l0.11-0.79C52.55,8.27,51.44,7,50,7h-5.44l0-0.06l0.06-0.83c0.1-1.37-0.99-2.54-2.37-2.54h-5.91
	V2.38c0-1.31-1.06-2.38-2.38-2.38h-5.88c-1.31,0-2.38,1.06-2.38,2.38v1.19h-5.97c-1.38,0-2.46,1.16-2.37,2.54l0.06,0.83l0,0.06
	h-5.44C10.55,7,9.44,8.27,9.64,9.7l0.11,0.79l1.8,12.75l-1.45,0c-0.41,0-0.82,0.06-1.2,0.22c-1.27,0.54-1.97,1.83-1.81,3.1
	l4.47,37.82C11.74,65.87,13,67,14.51,67h32.98c1.5,0,2.78-1.13,2.95-2.62l4.47-37.82C55.06,25.29,54.37,24.01,53.09,23.47z
	 M43.2,26.81l0.25-3.56l0.87-12.75h4.32l-0.33,2.32c0,0,0,0,0,0.01l-0.7,4.99c0,0.01,0,0.01,0,0.02l-0.77,5.42
	c-0.85,0.01-1.62,0.49-2.04,1.22c-0.47,0.83-0.99,1.61-1.54,2.34c-0.02,0.03-0.04,0.06-0.06,0.08L43.2,26.81z M36.34,6.93h4.66
	l0,0.06l-0.24,3.5l-0.88,12.75l-0.24,3.56l-0.27,3.85c-0.95,0.7-1.97,1.27-3.02,1.72V6.93z M29.27,3.43h3.5v29.93
	c-0.58,0.08-1.18,0.12-1.77,0.12c-0.59,0-1.16-0.04-1.73-0.11V3.43z M25.71,6.93V32.4c-1.08-0.45-2.11-1.04-3.08-1.74l-0.26-3.84
	l-0.25-3.56l-0.88-12.75L21,7l0-0.06H25.71z M17.67,10.49l0.88,12.75l0.25,3.56l0,0.08c-0.02-0.02-0.04-0.05-0.06-0.08
	c-0.55-0.73-1.07-1.51-1.54-2.34c-0.43-0.74-1.2-1.22-2.05-1.23l-1.8-12.75H17.67z M48.8,47.91h-7.15c-0.98,0-1.78,0.8-1.78,1.78v0
	c0,0.98,0.8,1.78,1.78,1.78h6.73l-1.41,11.97H15.04l-1.41-11.97h6.87c0.98,0,1.78-0.8,1.78-1.78v0c0-0.98-0.8-1.78-1.78-1.78h-7.3
	l-2.49-21.1h3.76c0.47,0.76,0.96,1.5,1.49,2.19c0.97,1.27,2.05,2.43,3.22,3.43c1.17,1.01,2.42,1.88,3.75,2.58
	c0.89,0.47,1.83,0.87,2.78,1.18c1.15,0.38,2.34,0.64,3.56,0.76c0.57,0.06,1.15,0.09,1.73,0.09c0.6,0,1.19-0.03,1.77-0.1
	c1.22-0.13,2.41-0.39,3.56-0.77c0.93-0.31,1.84-0.7,2.72-1.16c1.33-0.7,2.58-1.56,3.75-2.57c1.16-1.01,2.24-2.16,3.21-3.43
	c0.53-0.7,1.03-1.43,1.5-2.2h3.76L48.8,47.91z"/>
</svg>
