<?xml version="1.0" encoding="utf-8"?>
<!-- Generator: Adobe Illustrator 27.2.0, SVG Export Plug-In . SVG Version: 6.00 Build 0)  -->
<svg version="1.1" id="Слой_1" xmlns="http://www.w3.org/2000/svg" xmlns:xlink="http://www.w3.org/1999/xlink" x="0px" y="0px"
	 viewBox="0 0 62 67" style="enable-background:new 0 0 62 67;" xml:space="preserve">
<style type="text/css">
	.st0{fill:#D24F16;}
</style>
<g>
	<g>
		<path class="st0" d="M30.52,45.86c-0.21-0.35-0.42-0.7-0.65-1.04c-0.5-0.73-1.06-1.42-1.67-2.06c-0.92-0.96-1.95-1.82-3.08-2.53
			c-1.18-0.76-2.46-1.36-3.82-1.8c-1.56-0.49-3.22-0.76-4.94-0.76C7.34,37.68,0,45.02,0,54.03v3.55C0,62.78,4.22,67,9.42,67h13.88
			c2.43,0,4.65-0.93,6.32-2.44c1.08-0.97,1.92-2.19,2.46-3.56c0.16-0.4,0.29-0.82,0.39-1.25c0.17-0.69,0.25-1.42,0.25-2.16v-3.62
			C32.7,51.01,31.9,48.25,30.52,45.86z M23.29,63.44H9.42c-3.23,0-5.86-2.63-5.86-5.86v-3.55c0-7.06,5.74-12.8,12.8-12.8
			c0.64,0,1.27,0.05,1.88,0.14c1.32,0.19,2.57,0.59,3.73,1.16c1.15,0.56,2.21,1.29,3.14,2.17c0.87,0.82,1.63,1.76,2.25,2.8
			c1.13,1.89,1.78,4.1,1.8,6.46v3.62c0,1.27-0.41,2.46-1.1,3.42C26.99,62.48,25.25,63.44,23.29,63.44z"/>
		<path class="st0" d="M23.04,48.04c-0.85-1.12-1.97-2.01-3.26-2.59c-1.04-0.47-2.2-0.73-3.42-0.73c-0.06,0-0.13,0-0.19,0
			c-4.54,0.1-8.19,3.82-8.19,8.39v1.61c0,2.89,2.35,5.24,5.24,5.24h6.3c0.36,0,0.72-0.04,1.07-0.11c1.86-0.38,3.36-1.76,3.93-3.54
			c0.16-0.5,0.25-1.04,0.25-1.59v-1.61C24.75,51.21,24.11,49.45,23.04,48.04z M21.19,54.72c0,0.93-0.76,1.68-1.68,1.68h-6.3
			c-0.93,0-1.68-0.76-1.68-1.68v-1.61c0-2.17,1.44-4.01,3.41-4.62c0.45-0.14,0.92-0.21,1.42-0.21c0.78,0,1.51,0.18,2.16,0.51
			c1.58,0.79,2.67,2.43,2.67,4.32V54.72z"/>
	</g>
	<g>
		<path class="st0" d="M45.64,39.84c-0.98,0-1.92,0.17-2.8,0.48c0.89,0.94,1.67,1.98,2.32,3.1c0.16-0.02,0.32-0.02,0.48-0.02
			c2.67,0,4.83,2.17,4.83,4.83v1.61c0,0.93-0.76,1.68-1.68,1.68h-1.43v3.56h1.43c2.89,0,5.24-2.35,5.24-5.24v-1.61
			C54.03,43.6,50.27,39.84,45.64,39.84z"/>
		<path class="st0" d="M45.64,32.8c-3.63,0-7,1.19-9.71,3.2c1.36,0.44,2.65,1.04,3.83,1.8c1.76-0.92,3.76-1.44,5.88-1.44
			c7.06,0,12.8,5.74,12.8,12.8v3.54c0,3.23-2.63,5.86-5.86,5.86h-5.87c-0.53,1.37-1.38,2.59-2.46,3.56h8.33
			c5.19,0,9.42-4.23,9.42-9.42v-3.54C62,40.14,54.66,32.8,45.64,32.8z"/>
	</g>
	<g>
		<path class="st0" d="M39.39,50.67v1.61c0,0.55-0.09,1.09-0.25,1.59c-0.57,1.78-2.07,3.16-3.93,3.54c-0.34,0.07-0.7,0.11-1.07,0.11
			h-1.43v-3.56h1.43c0.93,0,1.68-0.76,1.68-1.68v-1.61c0-1.89-1.09-3.53-2.67-4.32c-0.65-0.33-1.38-0.51-2.16-0.51
			c-0.16,0-0.32,0.01-0.48,0.02c-0.21-0.35-0.42-0.7-0.65-1.04c-0.5-0.73-1.06-1.42-1.67-2.06c0.82-0.29,1.7-0.46,2.61-0.48
			c0.06,0,0.13,0,0.19,0c1.22,0,2.38,0.26,3.42,0.73c1.29,0.58,2.41,1.48,3.26,2.59C38.75,47.01,39.39,48.77,39.39,50.67z"/>
		<path class="st0" d="M47.36,51.52v3.62c0,1.21-0.23,2.36-0.64,3.42c-0.53,1.37-1.38,2.59-2.46,3.56
			c-1.67,1.51-3.88,2.44-6.32,2.44h-8.32c1.08-0.97,1.92-2.19,2.46-3.56h5.87c1.95,0,3.69-0.96,4.75-2.44
			c0.7-0.96,1.11-2.14,1.11-3.42v-3.62c-0.02-2.36-0.67-4.56-1.8-6.46c-0.62-1.04-1.38-1.98-2.25-2.8
			c-0.93-0.87-1.99-1.61-3.14-2.17c-1.15-0.57-2.41-0.97-3.73-1.16c-0.61-0.09-1.24-0.14-1.88-0.14c-2.12,0-4.12,0.52-5.88,1.44
			c-1.18-0.76-2.46-1.36-3.82-1.8c2.72-2.01,6.07-3.2,9.7-3.2c1.72,0,3.38,0.26,4.94,0.76c1.36,0.44,2.65,1.04,3.83,1.8
			c1.13,0.72,2.16,1.57,3.08,2.53c0.89,0.94,1.67,1.98,2.32,3.1C46.55,45.81,47.34,48.57,47.36,51.52z"/>
	</g>
	<path class="st0" d="M0,7.39V6.21l14.79-1.52l17.68-1.83l27.59-2.85c0.98-0.08,1.84,0.64,1.92,1.62s-0.64,1.84-1.62,1.92"/>
	<path class="st0" d="M0,14.43l0-1.16l14.71-0.15l17.77-0.18l27.74-0.28c0.98,0.01,1.77,0.81,1.76,1.79s-0.81,1.77-1.79,1.77"/>
</g>
</svg>
